<svg xmlns="http://www.w3.org/2000/svg" viewBox="0 0 52.05 50.96"><defs><style>.cls-1{fill:#13bf9e;}</style></defs><title>config-g</title><g id="Capa_2" data-name="Capa 2"><g id="Layer_1" data-name="Layer 1"><path class="cls-1" d="M44.9,19.64l-1.31-3.12s3-6.9,2.78-7.17l-4-3.95c-.29-.27-7.18,2.88-7.18,2.88L32,7s-2.81-7-3.2-7H23.05c-.39,0-3,7-3,7L16.87,8.29s-7-3-7.31-2.72l-4,4c-.28.27,2.93,7,2.93,7L7.14,19.67S0,22.43,0,22.8v5.59c0,.4,7.16,2.95,7.16,2.95l1.31,3.11s-3.05,6.89-2.79,7.16l4.05,4c.27.27,7.18-2.88,7.18-2.88L20.09,44s2.81,7,3.2,7H29c.4,0,3-7,3-7l3.19-1.28s7,3,7.3,2.73l4-4c.28-.27-2.94-7-2.94-7l1.31-3.12s7.14-2.75,7.14-3.13V22.57C52.05,22.18,44.9,19.64,44.9,19.64ZM34.37,25.48A8.35,8.35,0,1,1,26,17.32,8.27,8.27,0,0,1,34.37,25.48Z"/></g></g></svg>