<svg xmlns="http://www.w3.org/2000/svg" viewBox="0 0 143.21 79.42"><defs><style>.cls-1{fill:#fff;}</style></defs><title>eye</title><g id="Capa_2" data-name="Capa 2"><g id="Capa_1-2" data-name="Capa 1"><path class="cls-1" d="M142.55,37.8l-1.66-2.11a107.53,107.53,0,0,0-19.13-17.82C105.85,6.18,88.5,0,71.61,0S37.37,6.18,21.45,17.87A107.24,107.24,0,0,0,2.33,35.69L.67,37.8a3.08,3.08,0,0,0,0,3.83l1.66,2.1A106.84,106.84,0,0,0,21.45,61.55C37.37,73.24,54.71,79.42,71.61,79.42s34.24-6.18,50.15-17.87a106,106,0,0,0,19.12-17.82l1.67-2.1A3.08,3.08,0,0,0,142.55,37.8ZM71.61,70.24a30.53,30.53,0,1,1,30.53-30.53A30.53,30.53,0,0,1,71.61,70.24Z"/><path class="cls-1" d="M71.61,18.82A20.89,20.89,0,1,0,92.5,39.71,20.89,20.89,0,0,0,71.61,18.82Zm16,20.89a16,16,0,0,1-16,16,3.22,3.22,0,0,1,0-6.43,9.54,9.54,0,0,0,9.53-9.53,3.22,3.22,0,0,1,6.43,0Z"/></g></g></svg>