<svg xmlns="http://www.w3.org/2000/svg" viewBox="0 0 50.58 47.07"><defs><style>.cls-1{fill:#e6e6e6;}</style></defs><title>portfolio</title><g id="Capa_2" data-name="Capa 2"><g id="Layer_1" data-name="Layer 1"><path class="cls-1" d="M33.27,0h-16a4.5,4.5,0,0,0-4.5,4.5V7.81h4.5V4.5h16V7.81h4.5V4.5A4.49,4.49,0,0,0,33.27,0Z"/><path class="cls-1" d="M27.29,35.76v.94a2,2,0,0,1-4,0v-.94h-18a8.38,8.38,0,0,1-2.66-.43v9.08a2.66,2.66,0,0,0,2.66,2.66H45.25a2.67,2.67,0,0,0,2.67-2.66V35.33a8.44,8.44,0,0,1-2.67.43ZM47.92,11.13H2.66A2.67,2.67,0,0,0,0,13.8V27.11a5.32,5.32,0,0,0,5.32,5.32h18V30.87a2,2,0,1,1,4,0v1.56h18a5.33,5.33,0,0,0,5.33-5.32V13.8A2.67,2.67,0,0,0,47.92,11.13Z"/></g></g></svg>