<svg xmlns="http://www.w3.org/2000/svg" viewBox="0 0 6.17 5.95"><defs><style>.cls-1{fill:#4d4d4d;}</style></defs><title>search</title><g id="Capa_2" data-name="Capa 2"><g id="layer_1" data-name="layer 1"><path class="cls-1" d="M2.42,4.84A2.42,2.42,0,1,1,4.84,2.42,2.42,2.42,0,0,1,2.42,4.84Zm0-4.25A1.84,1.84,0,1,0,4.26,2.42,1.83,1.83,0,0,0,2.42.59Z"/><path class="cls-1" d="M5.88,6a.31.31,0,0,1-.2-.07L3.74,4.14a.3.3,0,0,1,0-.42.29.29,0,0,1,.41,0L6.07,5.44a.29.29,0,0,1,0,.41A.25.25,0,0,1,5.88,6Z"/></g></g></svg>