<svg xmlns="http://www.w3.org/2000/svg" viewBox="0 0 67.56 83.64"><defs><style>.cls-1{fill:#81efc2;}</style></defs><title>share_1</title><g id="Capa_2" data-name="Capa 2"><g id="Capa_1-2" data-name="Capa 1"><path class="cls-1" d="M52.86,29.4A14.75,14.75,0,1,0,39.17,20L23.05,31.09a14.7,14.7,0,1,0,.68,23.64L38.71,65a14.69,14.69,0,1,0,4.8-7.42L28.75,47.46a14.43,14.43,0,0,0-.28-9.38L44.69,26.91A14.62,14.62,0,0,0,52.86,29.4Zm0-25.78A11.08,11.08,0,1,1,41.78,14.7,11.1,11.1,0,0,1,52.86,3.62ZM14.7,54.25A11.08,11.08,0,1,1,25.78,43.17,11.09,11.09,0,0,1,14.7,54.25Zm38.16,3.61A11.09,11.09,0,1,1,41.78,69,11.1,11.1,0,0,1,52.86,57.86ZM41,60.29a13.45,13.45,0,0,0-.88,1.34L26.32,52.12a13.43,13.43,0,0,0,.91-1.32ZM26.8,34.84c-.31-.44-.64-.86-1-1.27L40.89,23.19c.31.44.65.85,1,1.26Z"/><circle class="cls-1" cx="52.86" cy="14.7" r="11.08"/><circle class="cls-1" cx="52.86" cy="68.95" r="11.08"/><circle class="cls-1" cx="14.7" cy="43.17" r="11.08"/></g></g></svg>