<svg xmlns="http://www.w3.org/2000/svg" viewBox="0 0 45.56 43.37"><defs><style>.cls-1{fill:#13bf9e;}</style></defs><title>abogados</title><g id="Capa_2" data-name="Capa 2"><g id="Capa_1-2" data-name="Capa 1"><path class="cls-1" d="M43.6,21.67a.76.76,0,0,1-.21,0L25.88,16.46l.4-1.36,16.84,5,.85-2.9-16.84-5,.41-1.36L45.05,16a.77.77,0,0,1,.43.34.68.68,0,0,1,.05.54l-1.25,4.26A.72.72,0,0,1,43.6,21.67Z"/><path class="cls-1" d="M23.23,22.47a1.53,1.53,0,0,1-.47-.07L8.89,18.3a1.64,1.64,0,0,1-1.11-2l.4-1.36a1.65,1.65,0,0,1,2.05-1.12l2.64.78-.41,1.36-2.64-.78a.24.24,0,0,0-.28.16l-.4,1.36a.22.22,0,0,0,.15.28L23.16,21a.24.24,0,0,0,.18,0,.21.21,0,0,0,.11-.13l.4-1.36a.24.24,0,0,0,0-.18.3.3,0,0,0-.13-.11l-6.94-2,.4-1.36,6.94,2a1.68,1.68,0,0,1,1,.79,1.63,1.63,0,0,1,.13,1.26l-.4,1.36a1.68,1.68,0,0,1-.79,1A1.72,1.72,0,0,1,23.23,22.47Z"/><path class="cls-1" d="M27.28,8.76a2,2,0,0,1-.47-.07L24.6,8,25,6.67l2.22.66a.22.22,0,0,0,.17,0,.24.24,0,0,0,.11-.14l.4-1.36a.18.18,0,0,0,0-.17.19.19,0,0,0-.13-.11L13.88,1.43a.24.24,0,0,0-.18,0,.25.25,0,0,0-.11.13l-.4,1.36a.23.23,0,0,0,.15.29L19.67,5.1l-.4,1.36L12.94,4.59a1.68,1.68,0,0,1-1-.79,1.63,1.63,0,0,1-.13-1.26l.4-1.36A1.68,1.68,0,0,1,13,.2,1.63,1.63,0,0,1,14.28.07l13.87,4.1a1.61,1.61,0,0,1,1,.79,1.63,1.63,0,0,1,.13,1.26l-.4,1.35a1.63,1.63,0,0,1-.79,1A1.72,1.72,0,0,1,27.28,8.76Z"/><path class="cls-1" d="M11.56,14.92l-1.36-.41L13.31,4a.73.73,0,0,1,.89-.48l6.08,1.8-.4,1.36L14.48,5Z"/><path class="cls-1" d="M23.72,18.51l-1.36-.4,2.92-9.87-2.35-.7.4-1.36,3,.9a.7.7,0,0,1,.48.88Z"/><path class="cls-1" d="M27.51,43.37H2.23a.71.71,0,0,1-.71-.71V38.6a.71.71,0,0,1,.71-.71H4.6V34.53a.7.7,0,0,1,.7-.71H24.43a.71.71,0,0,1,.71.71v3.36h2.37a.71.71,0,0,1,.71.71v4.06A.71.71,0,0,1,27.51,43.37ZM2.94,42H26.8V39.31H24.43a.71.71,0,0,1-.71-.71V35.24H6v2.65H17.49v1.42H2.94Z"/><rect class="cls-1" x="3.16" y="24.16" width="1.42" height="4.27" transform="translate(-16.95 9.77) rotate(-43.18)"/><rect class="cls-1" x="1.45" y="28.09" width="1.42" height="4.27" transform="translate(-28.12 31.42) rotate(-88.18)"/><rect class="cls-1" x="5.72" y="24.02" width="4.27" height="1.42" transform="matrix(0.03, -1, 1, 0.03, -17.12, 31.8)"/></g></g></svg>