<svg xmlns="http://www.w3.org/2000/svg" viewBox="0 0 53.57 35.27"><defs><style>.cls-1{fill:#fff;stroke:#fff;stroke-miterlimit:10;stroke-width:0.75px;}</style></defs><title>alojamiento_1</title><g id="Capa_2" data-name="Capa 2"><g id="Capa_1-2" data-name="Capa 1"><path class="cls-1" d="M3.58,12.68a2.21,2.21,0,0,0,3.15,0l1-1A2.25,2.25,0,0,0,9.82,11L12,8.82,13.47,7.3l-1.24-.07L9.17,10.37a1.32,1.32,0,0,1-1.42.31.43.43,0,0,0-.49.11L6.07,12a1.33,1.33,0,0,1-1.88,0,1.42,1.42,0,0,1-.28-.41.46.46,0,0,0-.42-.28H3.38a1.49,1.49,0,0,1-1.19-.6A1.28,1.28,0,0,1,2,10.46,3.18,3.18,0,0,1,1,10a2.42,2.42,0,0,0,.49,1.27,2.36,2.36,0,0,0,1.72.92A2,2,0,0,0,3.58,12.68Z"/><path class="cls-1" d="M18.19.41l-.45,0a8.37,8.37,0,0,0-.87,0C15.09.53,9.66,1.46,9.43,1.5h0C9.2,1.58,8.2,2,1.69,5.09A2.4,2.4,0,0,0,2.76,9.63a2.43,2.43,0,0,0,1.06-.25L10,6.3l6.81.06,2.63.93L14.62,8a2.4,2.4,0,0,0,.28,4.78l.29,0,8.91-1.21a3.09,3.09,0,0,1,1,0l3,.65a10.07,10.07,0,0,0,3.59.13l.87-.13v-.93l-1,.15a8.93,8.93,0,0,1-3.26-.12l-2.95-.64A3.82,3.82,0,0,0,24,10.64l-8.91,1.21a1.48,1.48,0,0,1-.34-2.94l6.69-1a.47.47,0,0,0,.39-.41.46.46,0,0,0-.3-.48L17.08,5.47a.4.4,0,0,0-.15,0l-7-.06h0a.35.35,0,0,0-.2,0L3.41,8.56A1.48,1.48,0,0,1,2.09,5.91c2-.92,7-3.27,7.55-3.51s5.66-1,7.3-1.1a6.6,6.6,0,0,1,.76,0l.47,0A43.1,43.1,0,0,1,30,3.14l.07,0,2.5.43V2.66l-2.32-.4A43.14,43.14,0,0,0,18.19.41Z"/><path class="cls-1" d="M52.73.9H38.81a.45.45,0,0,0-.46.45V13.52a.46.46,0,0,0,.46.46H52.73a.46.46,0,0,0,.46-.46V1.35A.45.45,0,0,0,52.73.9Zm-.46,12.16h-13V1.81h13Z"/><path class="cls-1" d="M33.91,1.56a.47.47,0,0,0-.46.46l-.07,10.82a.48.48,0,0,0,.46.46l3.59,0V12.4l-3.13,0,.07-9.9,3.06,0V1.59l-3.52,0Z"/><path class="cls-1" d="M27.48,31.46V29.88a.52.52,0,0,0-.53-.52H5.39a.52.52,0,0,0-.52.52v1.58c-.74.4-2.49,1.47-2.49,2.92a.52.52,0,0,0,.52.52H29.45a.55.55,0,0,0,.52-.55C30,32.93,28.22,31.86,27.48,31.46ZM3.57,33.85a5.37,5.37,0,0,1,2-1.59.53.53,0,0,0,.3-.47V30.4H26.43v1.39a.52.52,0,0,0,.31.47,5.26,5.26,0,0,1,2,1.59Z"/><path class="cls-1" d="M18.61,17.67a.53.53,0,0,0,.52-.54,2.9,2.9,0,0,0-2.9-2.9h-.12a2.9,2.9,0,0,0-2.89,2.92.52.52,0,0,0,.52.52Zm-2.5-2.39h.12A1.86,1.86,0,0,1,18,16.63H14.33A1.84,1.84,0,0,1,16.11,15.28Z"/><path class="cls-1" d="M5.27,28a.53.53,0,0,0,.52.52H26.55a.52.52,0,0,0,.52-.52c0-7.18-5.85-9.72-10.87-9.72h-.1C10.71,18.28,5.27,21.3,5.27,28ZM16.1,19.29h.1c4.41,0,9.54,2.15,9.82,8.15H6.33C6.61,21.48,11.71,19.32,16.1,19.29Z"/><path class="cls-1" d="M7.53,27h.1a.52.52,0,0,0,.51-.42,6.81,6.81,0,0,1,4.06-4.87.53.53,0,1,0-.45-1,7.82,7.82,0,0,0-4.64,5.62A.52.52,0,0,0,7.53,27Z"/><path class="cls-1" d="M25.47,31.32H6.87a.52.52,0,0,0,0,1h18.6a.52.52,0,1,0,0-1Z"/></g></g></svg>