<svg xmlns="http://www.w3.org/2000/svg" viewBox="0 0 33.61 25.25"><defs><style>.cls-1{fill:none;stroke:#13bf9e;stroke-miterlimit:10;}</style></defs><title>calzado</title><g id="Capa_2" data-name="Capa 2"><g id="Capa_1-2" data-name="Capa 1"><path class="cls-1" d="M6.87,16H1.44a.4.4,0,0,0-.41.48L2.54,24a.42.42,0,0,0,.41.33H5.1a.4.4,0,0,0,.41-.4V19.63A3.78,3.78,0,0,1,7,16.37.22.22,0,0,0,6.87,16Z"/><path class="cls-1" d="M29.25,18.83l-1.1-.26a16.7,16.7,0,0,1-7.78-4.27H15.55a1.26,1.26,0,0,1,0-2.51h2.68v0a1.24,1.24,0,0,0,1.1-1.23,1.25,1.25,0,0,0-1.26-1.26H13.88a1.26,1.26,0,0,1,0-2.51h2L14,.79a.42.42,0,0,0-.4-.29H4.09a.41.41,0,0,0-.37.22A30.13,30.13,0,0,0,.5,13.45a.42.42,0,0,0,.42.43H7.19c5.54,0,5.85,10.87,10.87,10.87H32.28a.83.83,0,0,0,.83-.83v-.21A5,5,0,0,0,29.25,18.83Z"/></g></g></svg>