<svg xmlns="http://www.w3.org/2000/svg" viewBox="0 0 39.67 37.73"><defs><style>.cls-1{fill:#13bf9e;}</style></defs><title>clinicasypoliclinicos</title><g id="Capa_2" data-name="Capa 2"><g id="Capa_1-2" data-name="Capa 1"><path class="cls-1" d="M29.18,37.73H10.49a.61.61,0,0,1-.61-.61V3.31a.61.61,0,0,1,.61-.61H29.18a.61.61,0,0,1,.61.61V37.12A.61.61,0,0,1,29.18,37.73ZM11.1,36.52H28.58V3.92H11.1Z"/><path class="cls-1" d="M39.06,35H29.18a.6.6,0,0,1-.6-.61V13.26a.6.6,0,0,1,.6-.61h9.88a.61.61,0,0,1,.61.61V34.39A.61.61,0,0,1,39.06,35Zm-9.27-1.22h8.67V13.87H29.79Z"/><path class="cls-1" d="M10.49,35H.61A.61.61,0,0,1,0,34.39V13.26a.61.61,0,0,1,.61-.61h9.88a.61.61,0,0,1,.61.61V34.39A.61.61,0,0,1,10.49,35ZM1.22,33.78H9.88V13.87H1.22Z"/><path class="cls-1" d="M21.07,12.74H18.6a.61.61,0,0,1-.6-.61V10.71H16.58A.61.61,0,0,1,16,10.1V7.63a.6.6,0,0,1,.61-.6H18V5.61A.6.6,0,0,1,18.6,5h2.47a.61.61,0,0,1,.61.61V7H23.1a.61.61,0,0,1,.61.6V10.1a.62.62,0,0,1-.61.61H21.68v1.42A.62.62,0,0,1,21.07,12.74Zm-1.86-1.22h1.25V10.1a.61.61,0,0,1,.61-.61h1.42V8.24H21.07a.61.61,0,0,1-.61-.61V6.21H19.21V7.63a.61.61,0,0,1-.61.61H17.18V9.49H18.6a.61.61,0,0,1,.61.61Z"/><path class="cls-1" d="M30.16,3.92H9.51a.61.61,0,0,1-.61-.61V.61A.61.61,0,0,1,9.51,0H30.16a.61.61,0,0,1,.61.61v2.7A.61.61,0,0,1,30.16,3.92Zm-20-1.22H29.55V1.22H10.12Z"/><path class="cls-1" d="M24.71,37.73H15a.61.61,0,0,1-.61-.61V26.94a.61.61,0,0,1,.61-.61h9.74a.61.61,0,0,1,.6.61V37.12A.6.6,0,0,1,24.71,37.73Zm-9.13-1.21H24.1v-9H15.58Z"/><path class="cls-1" d="M19.84,31.28a.6.6,0,0,1-.61-.6V26.94a.61.61,0,1,1,1.21,0v3.74A.6.6,0,0,1,19.84,31.28Z"/><path class="cls-1" d="M19.84,37.73a.61.61,0,0,1-.61-.61V33.31a.61.61,0,1,1,1.21,0v3.81A.6.6,0,0,1,19.84,37.73Z"/><path class="cls-1" d="M8.15,21.46H3a.61.61,0,0,1-.61-.6V17.33A.61.61,0,0,1,3,16.72h5.2a.6.6,0,0,1,.6.61v3.53A.6.6,0,0,1,8.15,21.46ZM3.56,20.25h4V17.93h-4Z"/><path class="cls-1" d="M8.15,28.77H3a.61.61,0,0,1-.61-.61V24.63A.61.61,0,0,1,3,24h5.2a.6.6,0,0,1,.6.61v3.53A.6.6,0,0,1,8.15,28.77ZM3.56,27.55h4V25.24h-4Z"/><path class="cls-1" d="M36.72,21.46H31.53a.6.6,0,0,1-.61-.6V17.33a.61.61,0,0,1,.61-.61h5.19a.61.61,0,0,1,.61.61v3.53A.6.6,0,0,1,36.72,21.46Zm-4.58-1.21h4V17.93h-4Z"/><path class="cls-1" d="M36.72,28.77H31.53a.61.61,0,0,1-.61-.61V24.63a.61.61,0,0,1,.61-.61h5.19a.61.61,0,0,1,.61.61v3.53A.61.61,0,0,1,36.72,28.77Zm-4.58-1.22h4V25.24h-4Z"/><path class="cls-1" d="M15.75,24.75h-3a.61.61,0,0,1-.61-.61V20.69a.6.6,0,0,1,.61-.6h3a.6.6,0,0,1,.61.6v3.45A.61.61,0,0,1,15.75,24.75Zm-2.43-1.22h1.82V21.3H13.32Z"/><path class="cls-1" d="M21.36,24.75H18.31a.6.6,0,0,1-.6-.61V20.69a.6.6,0,0,1,.6-.6h3.05a.61.61,0,0,1,.61.6v3.45A.61.61,0,0,1,21.36,24.75Zm-2.44-1.22h1.83V21.3H18.92Z"/><path class="cls-1" d="M27,24.75h-3a.61.61,0,0,1-.61-.61V20.69a.6.6,0,0,1,.61-.6h3a.6.6,0,0,1,.61.6v3.45A.61.61,0,0,1,27,24.75Zm-2.43-1.22h1.82V21.3H24.53Z"/><path class="cls-1" d="M15.75,18.87h-3a.61.61,0,0,1-.61-.61V14.81a.61.61,0,0,1,.61-.61h3a.61.61,0,0,1,.61.61v3.45A.61.61,0,0,1,15.75,18.87Zm-2.43-1.22h1.82V15.42H13.32Z"/><path class="cls-1" d="M21.36,18.87H18.31a.6.6,0,0,1-.6-.61V14.81a.6.6,0,0,1,.6-.61h3.05a.61.61,0,0,1,.61.61v3.45A.61.61,0,0,1,21.36,18.87Zm-2.44-1.22h1.83V15.42H18.92Z"/><path class="cls-1" d="M27,18.87h-3a.61.61,0,0,1-.61-.61V14.81a.61.61,0,0,1,.61-.61h3a.61.61,0,0,1,.61.61v3.45A.61.61,0,0,1,27,18.87Zm-2.43-1.22h1.82V15.42H24.53Z"/><path class="cls-1" d="M35.1,37.73H4.57a.61.61,0,1,1,0-1.21H35.1a.61.61,0,1,1,0,1.21Z"/></g></g></svg>