<svg xmlns="http://www.w3.org/2000/svg" viewBox="0 0 34.7 39.1"><defs><style>.cls-1{fill:#13bf9e;}</style></defs><title>dentales</title><g id="Capa_2" data-name="Capa 2"><g id="Capa_1-2" data-name="Capa 1"><path class="cls-1" d="M9.88,39.1a1.54,1.54,0,0,1-1-.41c-5.29-5-5.23-9.84-5.19-13.75a16.11,16.11,0,0,0-.38-4.71c-.24-.82-.6-1.79-1-2.81C.36,12.12-2.6,4.11,4.46.87A8.75,8.75,0,0,1,12,.85a14.53,14.53,0,0,0,10.31.74,11.08,11.08,0,0,1,7.22.19,8,8,0,0,1,4.81,5.46,9.21,9.21,0,0,1-1.56,8.1,17.39,17.39,0,0,0-3,7.32,15.76,15.76,0,0,0-.1,4.59,14.26,14.26,0,0,1-3.34,11.11,1.52,1.52,0,0,1-2.65-1c-.1-4-1.46-10.55-4.16-12.47a2.66,2.66,0,0,0-2.5-.38c-4.59,1.48-5.5,9.66-5.67,13.11a1.5,1.5,0,0,1-1,1.33A1.42,1.42,0,0,1,9.88,39.1ZM8.25,1.33A7.78,7.78,0,0,0,5,2.06C-.94,4.8,1.55,11.54,3.55,17c.38,1.05.75,2,1,2.89A17.38,17.38,0,0,1,5,25c0,3.83-.09,8.19,4.78,12.77a.17.17,0,0,0,.19,0,.2.2,0,0,0,.13-.17c.23-4.63,1.4-12.64,6.58-14.3a3.94,3.94,0,0,1,3.67.55c3.28,2.33,4.62,9.36,4.72,13.52a.19.19,0,0,0,.13.18.18.18,0,0,0,.21,0,12.77,12.77,0,0,0,3-10.09,17.38,17.38,0,0,1,.11-5,18.76,18.76,0,0,1,3.23-7.89,7.9,7.9,0,0,0,1.33-6.94,6.67,6.67,0,0,0-4-4.58,9.81,9.81,0,0,0-6.36-.16,15.83,15.83,0,0,1-11.24-.8A7.84,7.84,0,0,0,8.25,1.33Z"/><path class="cls-1" d="M26.94,20.52h-.12a.65.65,0,0,1-.53-.77,15.26,15.26,0,0,1,2.64-6.45,5.43,5.43,0,0,0,1-4.94A4.56,4.56,0,0,0,27,5.3a.66.66,0,1,1,.41-1.25A5.84,5.84,0,0,1,31.21,8,6.73,6.73,0,0,1,30,14.11,13.89,13.89,0,0,0,27.59,20,.66.66,0,0,1,26.94,20.52Z"/><path class="cls-1" d="M3.49,7.13a.82.82,0,0,1-.3-.07.68.68,0,0,1-.29-.89A5.9,5.9,0,0,1,5.58,3.56a6.14,6.14,0,0,1,5.8,0,.66.66,0,0,1-.59,1.18,4.86,4.86,0,0,0-4.61,0,4.5,4.5,0,0,0-2.1,2A.68.68,0,0,1,3.49,7.13Z"/><path class="cls-1" d="M23.87,8.3a5.29,5.29,0,0,1-4-2.22c-1.87-2.24-5.42-3-5.45-3a.66.66,0,1,1,.26-1.3c.16,0,4,.85,6.2,3.44C22.57,7.3,24.14,7,24.15,7a.66.66,0,1,1,.34,1.27A2.35,2.35,0,0,1,23.87,8.3Z"/></g></g></svg>