<svg xmlns="http://www.w3.org/2000/svg" viewBox="0 0 42.14 44.6"><defs><style>.cls-1{fill:#fff;stroke:#fff;stroke-miterlimit:10;stroke-width:0.5px;fill-rule:evenodd;}</style></defs><title>deportes</title><g id="Capa_2" data-name="Capa 2"><g id="Capa_1-2" data-name="Capa 1"><path class="cls-1" d="M28.37,10a4.9,4.9,0,1,0-4.94-4.89A4.9,4.9,0,0,0,28.37,10Zm8.8.68c-2.83,3.95-6.6,4.4-10.64,2-.27-.18-1.53-.86-1.8-1-6.51-3.86-13-2.33-17.38,3.78-1.84,2.6,2.42,5.07,4.26,2.51,2.25-3.19,5.12-4.09,8.27-3.1-1.62,2.79-3,5.57-5,9.52S8.52,31.47,4.34,29c-3.06-1.8-5.8,2.56-2.79,4.36a12.47,12.47,0,0,0,16-3.1.94.94,0,0,0,.36.18A32.69,32.69,0,0,1,25.49,35c1.13.94,3.06,5.66,4.18,8,1.39,2.88,5.88.81,4.49-2.06-1.3-2.7-3.46-8-5.16-9.39a40.42,40.42,0,0,0-6.25-4.27c1.49-3,3.1-5.84,4.76-8.71,5.3,1.62,10.33-.27,13.93-5.3,1.84-2.6-2.43-5.07-4.27-2.51Z"/></g></g></svg>