<svg xmlns="http://www.w3.org/2000/svg" viewBox="0 0 23.84 45.15"><defs><style>.cls-1{fill:#fff;stroke:#fff;stroke-miterlimit:10;stroke-width:0.5px;}</style></defs><title>gasdomestico_1</title><g id="Capa_2" data-name="Capa 2"><g id="Capa_1-2" data-name="Capa 1"><path class="cls-1" d="M12.85,9.8h4.27V4.49H6.72V9.8h6.13ZM8.17,8.35V6h7.5v2.4H14.33a2.1,2.1,0,0,0-2.08-1.86h-.66A2.1,2.1,0,0,0,9.51,8.35Zm3.42-.41h.66a.63.63,0,0,1,.59.41H11A.63.63,0,0,1,11.59,7.94Z"/><path class="cls-1" d="M20.5,11.49V.25H15.67V2H8.17V.25H3.34V11.49A6.49,6.49,0,0,0,.25,17V34.89a5.21,5.21,0,0,0,3,4.72V44.9h17.3V39.61a5.21,5.21,0,0,0,3-4.72V17A6.49,6.49,0,0,0,20.5,11.49ZM18.39,38.64H5.45A3.75,3.75,0,0,1,1.7,34.89V26H6.11a3.9,3.9,0,0,0-.29,2.29c.47,2.66,3.62,4.2,3.85,4.31a4.92,4.92,0,0,0,2.27.53,5.39,5.39,0,0,0,2.23-.48l0,0c1.95-1.17,3-2.43,3.34-3.87A4.77,4.77,0,0,0,17.24,26h4.9v8.91A3.75,3.75,0,0,1,18.39,38.64ZM1.7,17A5.07,5.07,0,0,1,6.76,12H17.08A5.07,5.07,0,0,1,22.14,17v7.51H16.5c-.4-.68-.87-1.34-1.33-2l-.33-.46c-1.21-2,.08-3.18.23-3.3a.73.73,0,0,0-.71-1.25C11.49,18.6,9.69,20.15,9,22.13a5.52,5.52,0,0,0-.3,2,.74.74,0,0,0-.48-.36.72.72,0,0,0-.68.2,7,7,0,0,0-.52.58H1.7ZM4.79,1.7H6.72V3.49h10.4V1.7h1.93v8.79H4.79ZM16.13,28.44a3.1,3.1,0,0,1-.73,1.38A4.06,4.06,0,0,0,15,26.33c-.1-.12-.19-.24-.29-.35a8.3,8.3,0,0,0-.72-.73,9.82,9.82,0,0,0-.92-.72l-.21-.15a.71.71,0,0,0-.79,0,.5.5,0,0,0-.17.15.72.72,0,0,0-.16.57s0,.1,0,.15a4.54,4.54,0,0,1,0,.73A3.85,3.85,0,0,1,11,28.11l-1.45-.29h0l-.15,0a.74.74,0,0,0-.57.27c-.21.26-.22.55-.14,1.3,0,.34.08.71.1.78a.61.61,0,0,0,0,.13A4.15,4.15,0,0,1,7.25,28a2.81,2.81,0,0,1,.5-2l.15-.22.15.22A3.17,3.17,0,0,0,10,27.33a.74.74,0,0,0,.74-.3.73.73,0,0,0,0-.78s-.06-.1-.13-.27a4.2,4.2,0,0,1-.26-.73,4.56,4.56,0,0,1-.15-.72,4.3,4.3,0,0,1,.19-1.94,5.51,5.51,0,0,1,2.55-2.8,4.34,4.34,0,0,0,.68,3.05.08.08,0,0,0,0,0l.35.49c.28.39.55.78.8,1.16s.32.48.47.72.28.49.4.73A3.79,3.79,0,0,1,16.13,28.44ZM13.36,30.9a1.6,1.6,0,0,1-1.26.73h0a1.35,1.35,0,0,1-.93-.38,3.31,3.31,0,0,1-1-1.36c0-.08,0-.27-.07-.47l1,.19a.74.74,0,0,0,.64-.17,5.19,5.19,0,0,0,1.43-3,6,6,0,0,1,.65.72C14.45,28.08,14.08,29.8,13.36,30.9Zm5.76,12.55H4.72v-3.2h14.4Z"/><path class="cls-1" d="M6.4,42.55h4a.73.73,0,0,0,0-1.46h-4a.73.73,0,0,0,0,1.46Z"/><path class="cls-1" d="M13.29,42.55h4a.73.73,0,0,0,0-1.46h-4a.73.73,0,0,0,0,1.46Z"/></g></g></svg>