<svg xmlns="http://www.w3.org/2000/svg" viewBox="0 0 45.94 43.3"><defs><style>.cls-1{fill:none;stroke:#13bf9e;stroke-miterlimit:10;}</style></defs><title>lavadodeautos</title><g id="Capa_2" data-name="Capa 2"><g id="Capa_1-2" data-name="Capa 1"><path class="cls-1" d="M42,22.22l-.13-.13-6.51.08L33.15,27.5l10.07-.15V25.29A4.32,4.32,0,0,0,42,22.22Z"/><path class="cls-1" d="M8.53,17.38,7.4,19.71,4.88,22.22a4.32,4.32,0,0,0-1.25,3.07V37.13H43.22V25.29A4.32,4.32,0,0,0,42,22.22l-2.52-2.51-4-8.36a1.86,1.86,0,0,0-1.66-1.08H17.94"/><path class="cls-1" d="M4.88,22.22,5,22.09l6.51.08L13.7,27.5,3.63,27.35V25.29A4.32,4.32,0,0,1,4.88,22.22Z"/><polyline class="cls-1" points="33.15 37.13 33.15 31.78 13.7 31.78 13.7 37.13"/><line class="cls-1" x1="16.5" y1="25.93" x2="30.76" y2="25.93"/><line class="cls-1" x1="38.89" y1="18.55" x2="7.96" y2="18.55"/><path class="cls-1" d="M10.53,42.8H7.68A2.65,2.65,0,0,1,5,40.15v-3h8.14v3A2.65,2.65,0,0,1,10.53,42.8Z"/><path class="cls-1" d="M39.2,42.8H36.36a2.65,2.65,0,0,1-2.65-2.65v-3h8.14v3A2.65,2.65,0,0,1,39.2,42.8Z"/><line class="cls-1" x1="39.87" y1="33.38" x2="43.22" y2="33.38"/><line class="cls-1" x1="36.76" y1="33.38" x2="38.62" y2="33.38"/><line class="cls-1" x1="6.98" y1="33.38" x2="3.63" y2="33.38"/><line class="cls-1" x1="10.09" y1="33.38" x2="8.23" y2="33.38"/><path class="cls-1" d="M15.81,5.78a2.82,2.82,0,0,0-1.23.29A3.86,3.86,0,0,0,7.23,7.71a4,4,0,0,0,0,.6,5,5,0,0,0-1.6-.26,5.18,5.18,0,1,0,3.2,9.24,3.91,3.91,0,0,0,2.21.69,3.85,3.85,0,0,0,2.14-7.06,5.58,5.58,0,0,0,.6-.49,2.75,2.75,0,1,0,2-4.65Z"/><circle class="cls-1" cx="17.33" cy="1.72" r="1.22"/><path class="cls-1" d="M39,3.24A1.22,1.22,0,1,1,37.78,2,1.22,1.22,0,0,1,39,3.24Z"/><circle class="cls-1" cx="3.94" cy="3.39" r="1.57"/><path class="cls-1" d="M41.12,8.81a4.77,4.77,0,0,0-3.43-1.44A4.68,4.68,0,0,0,35,8.2a4.76,4.76,0,0,0-3.28-1.3,4.82,4.82,0,0,0-4.59,3.37"/><path class="cls-1" d="M43.22,26a6.23,6.23,0,0,0-2-10.65,4.68,4.68,0,0,0,1.07-1.94"/><circle class="cls-1" cx="42.36" cy="10.97" r="2.49"/></g></g></svg>