<svg xmlns="http://www.w3.org/2000/svg" viewBox="0 0 45.43 42.48"><defs><style>.cls-1{fill:#fff;stroke:#fff;stroke-miterlimit:10;stroke-width:0.5px;fill-rule:evenodd;}</style></defs><title>mascotas_1</title><g id="Capa_2" data-name="Capa 2"><g id="Capa_1-2" data-name="Capa 1"><path class="cls-1" d="M31.65,29.73A.63.63,0,0,1,32,28.9a.65.65,0,0,1,.84.36s1.37,3.59,6.09,2.82a5.25,5.25,0,0,0,2.27-.95h0a7,7,0,0,0,2.29-3,3.71,3.71,0,0,1-2.87-2.56,3.17,3.17,0,0,1-.69-.17,4.44,4.44,0,0,1-2.48-2.77,8.57,8.57,0,0,0-3-3.91,6.26,6.26,0,0,0-4.35-1,9.72,9.72,0,0,0-4.59,2,13.58,13.58,0,0,0-1.88,1.77,12.33,12.33,0,0,1,4.21,5.88,11,11,0,0,1,.28,6.35,7.23,7.23,0,0,1-1.21,2.49,4.23,4.23,0,0,1-2,1.45,3.35,3.35,0,0,1-2,0l-.24-.07h0a5.66,5.66,0,0,1-3.39-4.1,13,13,0,0,1,.19-6.83c.1-.35.2-.7.33-1.05a15,15,0,0,1,2-3.88,10.52,10.52,0,0,0-1.19-.63l-3.3,3.46a.66.66,0,0,1-.77.12A7.78,7.78,0,0,0,13,23.7a9.2,9.2,0,0,0-3.61,1,.62.62,0,0,1-.71-.13h0L5.92,21.78a20,20,0,0,0-.63,5.85v.8L7,28.55a.65.65,0,0,1-.1,1.29l-1.57-.12V31.4L6.94,31a.66.66,0,0,1,.78.48.64.64,0,0,1-.49.77l-1.94.46v8.22H42.12V36.87a.65.65,0,0,1,.65-.64.64.64,0,0,1,.64.64v4.71a.64.64,0,0,1-.64.65H4.65A.65.65,0,0,1,4,41.58V33l-2.88.68a.65.65,0,0,1-.78-.48.64.64,0,0,1,.48-.77L4,31.7V29.62L.85,29.38A.64.64,0,1,1,.94,28.1L4,28.33v-.7c0-5.69,1.17-7.33,1.18-7.34h0l.07-.09a.65.65,0,0,1,.91,0l3.12,3.14a9.72,9.72,0,0,1,3.7-.93,8.49,8.49,0,0,1,3.73.9L20,19.86h0a.63.63,0,0,1,.68-.16,10.4,10.4,0,0,1,1.93,1,13.82,13.82,0,0,1,2.15-2.05A11,11,0,0,1,30,16.39,7.47,7.47,0,0,1,35.2,17.6a9.87,9.87,0,0,1,3.45,4.48,3.31,3.31,0,0,0,1.73,2.06,3,3,0,0,0,.77.15h.05a10.5,10.5,0,0,0,2-.17,1.51,1.51,0,0,1,1.69.86,3,3,0,0,1,.26,1.44A5.42,5.42,0,0,1,45,27.58a.29.29,0,0,1,0,.09c0,.14-.08.29-.13.44a8.39,8.39,0,0,1-2.21,3.49,3.72,3.72,0,0,1,.5.56,1.75,1.75,0,0,1,.3,1.44,1.7,1.7,0,0,1-.6.95,2.06,2.06,0,0,1-.92.4,2.35,2.35,0,0,1-1-.05,2.13,2.13,0,0,1-1.16-.71,1.71,1.71,0,0,0-.46-.36,4.76,4.76,0,0,0-.85-.39,6.43,6.43,0,0,1-6.86-3.71ZM22.72,15.82h0a1.31,1.31,0,0,0,1.76-.59l.06-.11c.75-1.51,1.5-3,1.1-4.46l0-.14A2.37,2.37,0,0,0,24,9a2.55,2.55,0,0,0-1.1-.07,2.36,2.36,0,0,0-1.08.49l-.2.18-.21,0a2.56,2.56,0,0,0-1.17.28,2.49,2.49,0,0,0-.86.75,2.28,2.28,0,0,0-.33,2.1,4,4,0,0,0,1.61,2h0a15,15,0,0,0,2,1.16Zm1.63-4.89h0c.34,1-.37,2.36-1,3.71-1.35-.67-2.68-1.35-3-2.36a1.1,1.1,0,0,1,2-.87,1.06,1.06,0,0,1,2.06-.48Zm-12.94,21h0a.91.91,0,0,1-.34-.17.63.63,0,0,1-.27-.52.63.63,0,1,0-1.25-.1,1.9,1.9,0,0,0,.74,1.59,2,2,0,0,0,.83.42,1.73,1.73,0,0,0,1,0,1.8,1.8,0,0,0,.82-.51,1.91,1.91,0,0,0,.82.51,1.76,1.76,0,0,0,1,0,2,2,0,0,0,.83-.42,1.91,1.91,0,0,0,.73-1.28,1.08,1.08,0,0,0,0-.31.63.63,0,0,0-.68-.58.67.67,0,0,0-.44.24.62.62,0,0,0-.13.44.64.64,0,0,1-.28.52.87.87,0,0,1-.33.17.62.62,0,0,1-.33,0,1,1,0,0,1-.58-.68.64.64,0,0,0-.39-.43l-.21,0h0l-.21,0a.65.65,0,0,0-.38.43,1.07,1.07,0,0,1-.58.68.62.62,0,0,1-.33,0Zm32.44-5.11h0a2.25,2.25,0,0,0,0-.44,1.75,1.75,0,0,0-.12-.82.3.3,0,0,0-.35-.16c-.48.07-.93.13-1.36.16a2.28,2.28,0,0,0,1.79,1.26Zm-8.3-3.76h0a2.78,2.78,0,0,0-2.93-.15.65.65,0,0,0-.21.89.64.64,0,0,0,.88.21,1.45,1.45,0,0,1,1.52.1.64.64,0,0,0,.9-.15.65.65,0,0,0-.16-.9ZM14.94,27.54h0v1.21a.64.64,0,1,0,1.28,0V27.54a.64.64,0,1,0-1.28,0Zm-5.4,0h0v1.21a.65.65,0,0,0,.65.65.64.64,0,0,0,.64-.65V27.54a.64.64,0,0,0-.64-.64.65.65,0,0,0-.65.64Zm32.07,4.87h0a7.68,7.68,0,0,1-1.18.6,2.09,2.09,0,0,1,.4.38.86.86,0,0,0,.45.27,1.36,1.36,0,0,0,.45,0,.83.83,0,0,0,.32-.13.43.43,0,0,0,.15-.25.54.54,0,0,0-.11-.42,2.15,2.15,0,0,0-.48-.47ZM5.24,17.86h0V13.28L23.65,1.65,42.12,13.28v9.57a.65.65,0,0,0,1.29,0V12.93h0a.68.68,0,0,0-.3-.55L24,.35a.64.64,0,0,0-.69,0l-19,12a.65.65,0,0,0-.34.57v4.93a.65.65,0,1,0,1.29,0Zm17.63,4.57h0A14.1,14.1,0,0,0,21,26q-.16.48-.3,1a11.81,11.81,0,0,0-.19,6.15,4.42,4.42,0,0,0,2.58,3.22h0l.17,0a2.11,2.11,0,0,0,1.27,0,2.91,2.91,0,0,0,1.35-1,5.58,5.58,0,0,0,1-2,9.74,9.74,0,0,0-.26-5.61A11,11,0,0,0,22.87,22.43Z"/></g></g></svg>