<svg xmlns="http://www.w3.org/2000/svg" viewBox="0 0 29.34 45.5"><defs><style>.cls-1{fill:none;stroke:#fff;stroke-miterlimit:10;stroke-width:2px;}</style></defs><title>moda_1</title><g id="Capa_2" data-name="Capa 2"><g id="Capa_1-2" data-name="Capa 1"><path class="cls-1" d="M7.82,25h13.7a.75.75,0,0,0,.55-.23,10.52,10.52,0,0,0,3.13-7.31,7.93,7.93,0,0,0-.53-2.73V9.5a1,1,0,0,0-1-1h-1a1,1,0,0,0-1,1v2.61a9.3,9.3,0,0,0-7,5.3,9.28,9.28,0,0,0-7-5.3V9.5a1,1,0,0,0-1-1h-1a1,1,0,0,0-1,1v5.18a7.92,7.92,0,0,0-.52,2.73,10.51,10.51,0,0,0,3.12,7.31A.76.76,0,0,0,7.82,25Zm15.26,2.93a1,1,0,0,0-.77-.38H7a1,1,0,0,0-.77.38A28.57,28.57,0,0,0,1,44a.49.49,0,0,0,.49.5H27.86a.48.48,0,0,0,.48-.5A28.5,28.5,0,0,0,23.08,27.88Z"/><path class="cls-1" d="M19.15,9a9.72,9.72,0,0,0-3.48-1V6.83a3,3,0,0,0,1.91-3.52,3,3,0,0,0-2.22-2.23A3,3,0,0,0,11.67,4a1,1,0,1,0,2,0,1,1,0,0,1,.38-.78,1,1,0,0,1,1.59.53A1,1,0,0,1,15,4.94a2,2,0,0,0-1.34,1.84V7.9a9.72,9.72,0,0,0-3.43.9,1,1,0,0,0-.47,1.33,1,1,0,0,0,1.34.47,8.14,8.14,0,0,1,7.08.15,1.07,1.07,0,0,0,.48.12A1,1,0,0,0,19.15,9Z"/></g></g></svg>