<svg xmlns="http://www.w3.org/2000/svg" viewBox="0 0 56.18 39.28"><defs><style>.cls-1{fill:#fff;stroke:#fff;stroke-miterlimit:10;stroke-width:0.5px;}</style></defs><title>mudanzas</title><g id="Capa_2" data-name="Capa 2"><g id="Capa_1-2" data-name="Capa 1"><path class="cls-1" d="M55.9,10.21a6.73,6.73,0,0,0-6.71-6.06H41.1V2.79a2.54,2.54,0,1,0-5.08,0V25H34.44V3.43a1.19,1.19,0,0,0-1.19-1.19H2.56a1.19,1.19,0,0,0-1.2,1.19V25.1A1.71,1.71,0,0,0,.25,26.7v2.46a1.71,1.71,0,0,0,1.67,1.71v2.8A1.18,1.18,0,0,0,3.1,34.85H4.56a5.15,5.15,0,0,0,10.11,0h1a5.15,5.15,0,0,0,10.11,0h11A1.18,1.18,0,0,0,38,33.67v-2.8h1.1V34a1.83,1.83,0,0,0,1.83,1.84h1.81a5.14,5.14,0,0,0,9.54,0h1.18a2.47,2.47,0,0,0,2.46-2.47V10.9C55.93,10.67,55.92,10.45,55.9,10.21ZM49,18.34l-4.51-1.57.08-5.46h9.34V25.1H49.82V19.45A1.18,1.18,0,0,0,49,18.34ZM38,2.79a.55.55,0,0,1,.55-.55.55.55,0,0,1,.55.55V28.88H38ZM36,27v1.92h-14a5.07,5.07,0,0,0-1.35-.2,5,5,0,0,0-1.34.2H11a5,5,0,0,0-1.35-.2,5,5,0,0,0-1.34.2h-6V27H36Zm-22.21,3.9h2.71a5.35,5.35,0,0,0-.86,2h-1A5.05,5.05,0,0,0,13.81,30.87ZM32.45,4.23V25H3.35V4.23ZM3.9,30.87H5.41a5.18,5.18,0,0,0-.85,2H3.9ZM9.61,37a3.19,3.19,0,1,1,3.17-3.18A3.19,3.19,0,0,1,9.61,37Zm11.11,0a3.19,3.19,0,1,1,3.17-3.18A3.19,3.19,0,0,1,20.72,37ZM36,32.87H25.78a5.05,5.05,0,0,0-.86-2H36ZM47.52,37a3.19,3.19,0,1,1,3.17-3.18A3.18,3.18,0,0,1,47.52,37Zm5.95-3.22h-.8a5.15,5.15,0,0,0-10.3,0H41.1V6.13h8.09a4.73,4.73,0,0,1,4.47,3.19H44.6a2,2,0,0,0-2.08,2v6a1.18,1.18,0,0,0,.79,1.11L47.83,20v5.89A1.19,1.19,0,0,0,49,27.09h4.92v6.25A.48.48,0,0,1,53.47,33.82Z"/><path class="cls-1" d="M45.7,25.31H43.24a1,1,0,1,0,0,2H45.7a1,1,0,1,0,0-2Z"/><path class="cls-1" d="M45.7,22.32H43.24a1,1,0,1,0,0,2H45.7a1,1,0,0,0,0-2Z"/><path class="cls-1" d="M10.09,22.7a1,1,0,0,0,1-1V9.42a1,1,0,0,0-2,0V21.7A1,1,0,0,0,10.09,22.7Z"/><path class="cls-1" d="M17.23,22.7a1,1,0,0,0,1-1V9.42a1,1,0,0,0-2,0V21.7A1,1,0,0,0,17.23,22.7Z"/><path class="cls-1" d="M24.36,22.7a1,1,0,0,0,1-1V9.42a1,1,0,0,0-2,0V21.7A1,1,0,0,0,24.36,22.7Z"/></g></g></svg>