<svg xmlns="http://www.w3.org/2000/svg" viewBox="0 0 33.08 39.64"><defs><style>.cls-1{fill:#fff;}</style></defs><title>oficiosdomesticos</title><g id="Capa_2" data-name="Capa 2"><g id="Capa_1-2" data-name="Capa 1"><path class="cls-1" d="M16.33,39.64A85.81,85.81,0,0,1,5.22,39C.89,38.42,0,37.68,0,36.75v-2.1c0-6.51,4.46-11.81,9.94-11.81A2.67,2.67,0,0,0,12.49,21a5.7,5.7,0,0,0,.16-.55.78.78,0,0,1,.43-.51.78.78,0,0,1,.65,0,6.23,6.23,0,0,0,5.61,0,.8.8,0,0,1,.66,0,.77.77,0,0,1,.42.51c0,.18.1.37.16.55a2.68,2.68,0,0,0,2.55,1.86c5.49,0,10,5.3,10,11.81v2.1c0,.93-.93,1.67-5.43,2.26A90.24,90.24,0,0,1,16.33,39.64ZM1.53,36.57c.94.67,6.39,1.55,14.8,1.55s14.24-.9,15.22-1.56V34.65c0-5.67-3.78-10.28-8.42-10.28a4.19,4.19,0,0,1-3.93-2.72,7.81,7.81,0,0,1-5.33,0,4.18,4.18,0,0,1-3.93,2.71C5.3,24.37,1.53,29,1.53,34.65Z"/><path class="cls-1" d="M16.54,22.13a7.81,7.81,0,0,1-7.81-7.81V12.5a.78.78,0,0,1,.77-.77H23.58a.77.77,0,0,1,.76.77v1.82A7.81,7.81,0,0,1,16.54,22.13Zm-6.28-8.87v1.06a6.28,6.28,0,0,0,12.56,0V13.26Z"/><path class="cls-1" d="M13.6,5.93a.77.77,0,0,1-.77-.77V1.28A.77.77,0,0,1,13.6.52a.76.76,0,0,1,.76.76V5.16A.76.76,0,0,1,13.6,5.93Z"/><path class="cls-1" d="M19.48,5.93a.76.76,0,0,1-.76-.77V1.28a.76.76,0,0,1,1.52,0V5.16A.76.76,0,0,1,19.48,5.93Z"/><path class="cls-1" d="M16.74,39.64A90.18,90.18,0,0,1,5.43,39C.92,38.42,0,37.68,0,36.75v-2.1c0-6.51,4.46-11.81,9.94-11.81A2.67,2.67,0,0,0,12.49,21a5.7,5.7,0,0,0,.16-.55.78.78,0,0,1,.43-.51.78.78,0,0,1,.65,0,6.23,6.23,0,0,0,5.61,0,.8.8,0,0,1,.66,0,.77.77,0,0,1,.42.51c0,.18.1.37.16.55a2.68,2.68,0,0,0,2.55,1.86c5.49,0,10,5.3,10,11.81v2.1c0,.93-.89,1.67-5.22,2.26A86,86,0,0,1,16.74,39.64ZM1.53,36.56c1,.66,6.71,1.56,15.21,1.56s13.87-.88,14.81-1.55V34.65c0-5.67-3.78-10.28-8.42-10.28a4.19,4.19,0,0,1-3.93-2.72,7.81,7.81,0,0,1-5.33,0,4.18,4.18,0,0,1-3.93,2.71C5.3,24.37,1.53,29,1.53,34.65Z"/><path class="cls-1" d="M24.54,13.26h-16A2.3,2.3,0,0,1,6.24,11V9.25A2.3,2.3,0,0,1,8.53,7h16a2.29,2.29,0,0,1,2.29,2.29V11A2.29,2.29,0,0,1,24.54,13.26Zm-16-4.77a.76.76,0,0,0-.76.76V11a.76.76,0,0,0,.76.76h16a.77.77,0,0,0,.77-.76V9.25a.77.77,0,0,0-.77-.76Z"/><path class="cls-1" d="M25,8.55l-.21,0-.22,0h-16l-.21,0a.75.75,0,0,1-.73-.16.81.81,0,0,1-.24-.71,9.34,9.34,0,0,1,18.37,0,.76.76,0,0,1-.24.71A.74.74,0,0,1,25,8.55ZM9.1,7H24A7.81,7.81,0,0,0,9.1,7Z"/><path class="cls-1" d="M6.88,39.18a.76.76,0,0,1-.76-.76V34.28A1.79,1.79,0,0,1,7.9,32.49h8.64a.77.77,0,0,1,.76.77.76.76,0,0,1-.76.76H7.9a.26.26,0,0,0-.25.26v4.14A.76.76,0,0,1,6.88,39.18Z"/><path class="cls-1" d="M16.74,39.64A90.18,90.18,0,0,1,5.43,39C.92,38.42,0,37.68,0,36.75v-2.1c0-6.51,4.46-11.81,9.94-11.81A2.67,2.67,0,0,0,12.49,21a5.7,5.7,0,0,0,.16-.55.78.78,0,0,1,.43-.51.78.78,0,0,1,.65,0,6.23,6.23,0,0,0,5.61,0,.8.8,0,0,1,.66,0,.77.77,0,0,1,.42.51c0,.18.1.37.16.55a2.68,2.68,0,0,0,2.55,1.86c5.49,0,10,5.3,10,11.81v2.1c0,.93-.89,1.67-5.22,2.26A86,86,0,0,1,16.74,39.64ZM1.53,36.56c1,.66,6.71,1.56,15.21,1.56s13.87-.88,14.81-1.55V34.65c0-5.67-3.78-10.28-8.42-10.28a4.19,4.19,0,0,1-3.93-2.72,7.81,7.81,0,0,1-5.33,0,4.18,4.18,0,0,1-3.93,2.71C5.3,24.37,1.53,29,1.53,34.65Z"/><path class="cls-1" d="M26.19,39.18a.76.76,0,0,1-.76-.76V34.28a.26.26,0,0,0-.26-.26H16.54a.77.77,0,0,1-.77-.76.78.78,0,0,1,.77-.77h8.63A1.79,1.79,0,0,1,27,34.28v4.14A.77.77,0,0,1,26.19,39.18Z"/><path class="cls-1" d="M23.82,34h-6a.79.79,0,0,1-.54-.22l-2.52-2.53a.76.76,0,0,1,.54-1.3,2.25,2.25,0,0,0,1.59-.66,2.2,2.2,0,0,0,.65-1.59A.78.78,0,0,1,18,27a.79.79,0,0,1,.84.17l5.54,5.54a.76.76,0,0,1-.54,1.3Zm-5.71-1.53H22l-3.26-3.25a3.72,3.72,0,0,1-.78,1.15,3.87,3.87,0,0,1-1.15.79Z"/><path class="cls-1" d="M15.27,31.49a3.76,3.76,0,0,1-3.63-4.74.77.77,0,0,1,.54-.54.76.76,0,0,1,.74.2l.78.78a.75.75,0,0,0,1,0,.78.78,0,0,0,.21-.52.76.76,0,0,0-.21-.52L14,25.37a.76.76,0,0,1,.34-1.28A3.76,3.76,0,0,1,19,27.73a3.74,3.74,0,0,1-1.1,2.66A3.79,3.79,0,0,1,15.27,31.49Zm-2-2.77a2,2,0,0,0,.42.59,2.24,2.24,0,0,0,3.17,0,2.22,2.22,0,0,0,.65-1.58,2.21,2.21,0,0,0-1.24-2,2.2,2.2,0,0,1,.21,1,2.26,2.26,0,0,1-3.21,2Z"/><path class="cls-1" d="M8.36,34a.76.76,0,0,1-.76-.76V23.77a.77.77,0,0,1,1.53,0v9.49A.76.76,0,0,1,8.36,34Z"/><path class="cls-1" d="M24.71,34a.76.76,0,0,1-.76-.76V23.77a.76.76,0,0,1,.76-.76.77.77,0,0,1,.77.76v9.49A.77.77,0,0,1,24.71,34Z"/></g></g></svg>