<svg xmlns="http://www.w3.org/2000/svg" viewBox="0 0 39.21 46.18"><defs><style>.cls-1{fill:#13bf9e;}</style></defs><title>opticas</title><g id="Capa_2" data-name="Capa 2"><g id="Capa_1-2" data-name="Capa 1"><path class="cls-1" d="M2.72,43.81H36.49a.4.4,0,0,0,.4-.4V2.77a.4.4,0,0,0-.4-.4H2.72a.4.4,0,0,0-.4.4V43.41A.4.4,0,0,0,2.72,43.81ZM3.11,3.17h33V43h-33Z"/><path class="cls-1" d="M38.81,0H.4A.4.4,0,0,0,0,.4V45.78a.4.4,0,0,0,.4.4H38.81a.4.4,0,0,0,.4-.4V.4A.4.4,0,0,0,38.81,0Zm-.4,45.38H.8V.8H38.41Z"/><polygon class="cls-1" points="23.41 14.66 16.73 14.66 16.73 12.7 23.41 12.7 23.41 10.21 16.73 10.21 16.73 8.19 23.41 8.19 23.41 5.83 14.25 5.83 14.25 17.31 23.41 17.31 23.41 14.66"/><polygon class="cls-1" points="9.43 29.75 11.33 29.75 11.34 26.2 16.5 26.2 16.5 24.27 11.34 24.27 11.34 22.72 16.5 22.72 16.5 20.9 9.43 20.9 9.43 29.75"/><polygon class="cls-1" points="9.32 34.37 11.18 34.37 11.17 39.51 12.56 39.51 12.57 34.37 14.47 34.37 14.47 33.05 9.32 33.05 9.32 34.37"/><polygon class="cls-1" points="24.42 34.53 27.8 34.53 24.42 38.34 24.42 39.66 29.23 39.66 29.23 38.34 25.84 38.34 29.23 34.53 29.23 33.2 24.42 33.2 24.42 34.53"/><path class="cls-1" d="M26.78,20.9H22.39v8.85h1.94V26.47h3a2.93,2.93,0,0,0,3-2.79C30.34,22.15,28.74,20.9,26.78,20.9Zm-.62,3.81H24.3V22.55h1.51c1.12,0,2.62.11,2.62,1.08S27.13,24.71,26.16,24.71Z"/><path class="cls-1" d="M19.19,33.05c-1.43,0-2.58,1.44-2.58,3.23s1.15,3.23,2.58,3.23,2.58-1.45,2.58-3.23S20.61,33.05,19.19,33.05Zm0,5.12c-.69,0-1.25-.85-1.25-1.89s.56-1.89,1.25-1.89,1.25.84,1.25,1.89S19.88,38.17,19.19,38.17Z"/></g></g></svg>