<svg xmlns="http://www.w3.org/2000/svg" viewBox="0 0 57.47 43.11"><defs><style>.cls-1{fill:#fff;stroke:#fff;stroke-miterlimit:10;stroke-width:0.5px;}</style></defs><title>productosnaturales</title><g id="Capa_2" data-name="Capa 2"><g id="Capa_1-2" data-name="Capa 1"><path class="cls-1" d="M57.22,14.27a.73.73,0,0,0-.52-.68,21.87,21.87,0,0,0-12.54.7C38.57,16.52,36,22,35.06,27.66a27.54,27.54,0,0,0-.39,4.44l-3.23,2.73a4.62,4.62,0,0,0-2-.92l0-4.2c4.26-3.51,7.87-8.94,8-14.56C37.37,9.46,33.65,4,29.32.45a.74.74,0,0,0-1,0,24,24,0,0,0-7.14,9.64c-2.24,5.79-.14,11.53,3.6,16.14a25.11,25.11,0,0,0,3.32,3.44c0,1.4,0,2.79,0,4.19a4.29,4.29,0,0,0-2.06.89L22.84,32.1a25.39,25.39,0,0,0-2.4-11,13.16,13.16,0,0,0-6.09-6.3A19,19,0,0,0,6,13.08a24.38,24.38,0,0,0-5.25.55.71.71,0,0,0-.52.68C.13,19.87,1.74,26.45,6,30.23c4.27,3.55,10.61,4.12,15.93,3l3.08,2.59a4.7,4.7,0,0,0,.48,5.7,4.33,4.33,0,0,0,6.07.23,4.65,4.65,0,0,0,.75-5.82l3.2-2.7c5.31,1.13,11.66.55,15.92-3C55.75,26.41,57.36,19.83,57.22,14.27ZM10.59,24.42a1.31,1.31,0,0,0,1.3.3L20.57,32c-4.59.76-10,.18-13.53-2.8C3.16,25.81,1.66,20,1.67,14.89a20.62,20.62,0,0,1,10.83.62c5.45,2,7.8,7.4,8.61,12.77.13.85.23,1.72.28,2.59l-8.6-7.25a1.4,1.4,0,0,0-.42-1.16,1.31,1.31,0,0,0-1.91.17A1.36,1.36,0,0,0,10.59,24.42ZM22.6,20c-2.26-5.61-.08-11.13,3.67-15.5a25.23,25.23,0,0,1,2.55-2.62C32.65,5.14,36,10.05,36,15.15c-.06,4.8-3,9.42-6.51,12.67l.09-11.55a1.32,1.32,0,0,0,.61-1.11,1.34,1.34,0,0,0-1.31-1.34,1.32,1.32,0,0,0-1.31,1.29,1.26,1.26,0,0,0,.59,1.14L28.1,27.8A22.35,22.35,0,0,1,22.6,20ZM26.54,40.5a3.25,3.25,0,0,1,.09-4.42,2.93,2.93,0,0,1,4.29.19C33.24,39.21,29.21,43.45,26.54,40.5ZM50.47,29.2c-3.58,3-8.94,3.58-13.53,2.83L45.6,24.7a1.37,1.37,0,0,0,1.28-.28A1.34,1.34,0,0,0,47,22.61a1.3,1.3,0,0,0-1.84-.22,1.33,1.33,0,0,0-.48,1.21L36.1,30.88a24.17,24.17,0,0,1,2-8.71A12.2,12.2,0,0,1,43.69,16a17.5,17.5,0,0,1,8-1.57,23.63,23.63,0,0,1,4.11.38C55.82,19.93,54.34,25.78,50.47,29.2Z"/></g></g></svg>