<svg xmlns="http://www.w3.org/2000/svg" viewBox="0 0 35.27 31.24"><defs><style>.cls-1{fill:#fff;}</style></defs><title>serviciosparalasalud</title><g id="Capa_2" data-name="Capa 2"><g id="Capa_1-2" data-name="Capa 1"><path class="cls-1" d="M32.13,15.86a9.45,9.45,0,0,0,2-3.32,9.94,9.94,0,0,0,.52-3.17A9.6,9.6,0,0,0,32,2.77,8.49,8.49,0,0,0,25.78,0a8.87,8.87,0,0,0-8.06,5.53h0a.47.47,0,0,1-.42.3.48.48,0,0,1-.42-.3A8.85,8.85,0,0,0,8.83,0,8.51,8.51,0,0,0,2.57,2.77,9.59,9.59,0,0,0,0,9.37a9.77,9.77,0,0,0,.5,3.1,9.34,9.34,0,0,0,2.59,4L16.82,31a.74.74,0,0,0,.51.21.71.71,0,0,0,.5-.21l4-4.25a7.92,7.92,0,0,0,.84,1.07,7.12,7.12,0,0,0,5.19,2.27h.06a7.65,7.65,0,0,0,7.34-7.91,8.09,8.09,0,0,0-2.37-5.69A6.88,6.88,0,0,0,32.13,15.86ZM17.33,29.54l-13.18-14,0,0L4,15.48a7.88,7.88,0,0,1-.84-.89A8.16,8.16,0,0,1,1.81,12a8.46,8.46,0,0,1-.42-2.66,8.25,8.25,0,0,1,2.2-5.66A7.15,7.15,0,0,1,8.83,1.39a7.49,7.49,0,0,1,6.78,4.68,1.82,1.82,0,0,0,3.39,0,7.49,7.49,0,0,1,6.78-4.68A7.17,7.17,0,0,1,31,3.71a8.25,8.25,0,0,1,2.2,5.66,8.56,8.56,0,0,1-.44,2.72A8.15,8.15,0,0,1,31,15h0l0,.05-.06.06a7.22,7.22,0,0,0-3.1-.71,7.64,7.64,0,0,0-7.34,7.9h0a8.1,8.1,0,0,0,.65,3.17Zm10.59-.34a6.19,6.19,0,0,1-4.57-2,7.11,7.11,0,0,1-1.94-4.89,6.73,6.73,0,0,1,6.42-7,6.21,6.21,0,0,1,4.42,1.83,7.22,7.22,0,0,1,2.1,5A6.74,6.74,0,0,1,27.92,29.2Z"/><path class="cls-1" d="M29.82,16.59H25.94v3.64H22.52v4.08h3.42V28h3.88V24.31h3.41V20.23H29.82Zm1.05,4.57h1.44v2.22H28.89V27h-2V23.38H23.45V21.16h3.41V17.52h2v3.64Z"/></g></g></svg>