<svg xmlns="http://www.w3.org/2000/svg" viewBox="0 0 55.04 29.57"><defs><style>.cls-1{fill:#fff;stroke:#fff;stroke-miterlimit:10;stroke-width:0.5px;}</style></defs><title>serviciosparaempresas_1</title><g id="Capa_2" data-name="Capa 2"><g id="Capa_1-2" data-name="Capa 1"><path class="cls-1" d="M7.9,19.86a.76.76,0,0,1-.21,0L.88,18a.84.84,0,0,1-.6-1L4.54,1.36a.84.84,0,0,1,1-.59l6.79,1.82a.84.84,0,0,1,.51.39.81.81,0,0,1,.09.64L8.72,19.24A.85.85,0,0,1,7.9,19.86ZM2.13,16.61,7.31,18l3.8-14L6,2.62Z"/><path class="cls-1" d="M11,18.94a5.32,5.32,0,0,1-1.66-.26l-1.24-.39a.84.84,0,0,1-.56-1L10.86,4.92a.84.84,0,0,1,1-.6l1.84.51a5.47,5.47,0,0,0,3.08,0l4.42-1.35a5.63,5.63,0,0,1,5.42,1.24L32.42,10a2.74,2.74,0,0,1-1.09,4.66,2.71,2.71,0,0,1-2.25-.32l-3.35-2.15a2.7,2.7,0,0,0-2.94,0L14,18A5.49,5.49,0,0,1,11,18.94Zm-1.62-2,.47.15a3.82,3.82,0,0,0,3.25-.46l8.79-5.84a4.4,4.4,0,0,1,4.79,0L30,12.89a1,1,0,0,0,.87.12,1,1,0,0,0,.66-.57,1.05,1.05,0,0,0-.24-1.23L25.52,5.92a3.9,3.9,0,0,0-3.79-.86L17.32,6.41a7.21,7.21,0,0,1-4,0l-1-.28Z"/><path class="cls-1" d="M42.36,19.82a.83.83,0,0,1-.76-.49.84.84,0,0,1,.4-1.12l3.39-1.58L41.33,6.56l-2.47.36a6.5,6.5,0,0,1-3.18-.32L29.16,4.23a2.12,2.12,0,0,0-1.53,0l-2.48,1a.85.85,0,0,1-.63-1.57l2.48-1a3.81,3.81,0,0,1,2.74,0L36.26,5a4.73,4.73,0,0,0,2.36.24l3.12-.46a.84.84,0,0,1,.91.52l4.6,11.43a.85.85,0,0,1-.42,1.08l-4.11,1.92A.94.94,0,0,1,42.36,19.82Z"/><path class="cls-1" d="M41.28,23.44a2.3,2.3,0,0,1-1.89-1l-1.53-2.15a2.32,2.32,0,0,1,.55-3.23L39,16.7a2.32,2.32,0,0,1,3.23.55l1.53,2.16a2.32,2.32,0,0,1-.56,3.22l-.54.39A2.33,2.33,0,0,1,41.28,23.44Zm-1-5.48a.6.6,0,0,0-.36.12l-.54.38a.63.63,0,0,0-.15.87l1.53,2.16a.63.63,0,0,0,.87.15l.54-.38a.64.64,0,0,0,.15-.88L40.8,18.23A.61.61,0,0,0,40.29,18Z"/><path class="cls-1" d="M38.81,26.39a2.83,2.83,0,0,1-.41,0,2.38,2.38,0,0,1-1.53-1L33,20a2.37,2.37,0,0,1,.56-3.3l.57-.4a2.37,2.37,0,0,1,3.3.56l3.84,5.43A2.31,2.31,0,0,1,41.7,24a2.38,2.38,0,0,1-1,1.54l-.56.39A2.35,2.35,0,0,1,38.81,26.39Zm-3.29-8.88a.65.65,0,0,0-.39.13l-.56.39a.7.7,0,0,0-.28.45.67.67,0,0,0,.12.51l3.84,5.42a.66.66,0,0,0,.44.28.71.71,0,0,0,.51-.11l.56-.4a.7.7,0,0,0,.28-.45.67.67,0,0,0-.12-.51L36.08,17.8A.67.67,0,0,0,35.52,17.51Z"/><path class="cls-1" d="M34.94,27.4a2.83,2.83,0,0,1-.41,0,2.39,2.39,0,0,1-1.54-1l-2.85-4a2.38,2.38,0,0,1,.57-3.31l.56-.39a2.36,2.36,0,0,1,3.31.56l2.85,4a2.37,2.37,0,0,1-.57,3.31l-.56.4A2.38,2.38,0,0,1,34.94,27.4Zm-2.3-7.48a.72.72,0,0,0-.4.12l-.56.4a.68.68,0,0,0-.28.44.69.69,0,0,0,.12.52l2.85,4a.79.79,0,0,0,.45.28.71.71,0,0,0,.51-.12l.56-.4a.66.66,0,0,0,.28-.44.67.67,0,0,0-.12-.51l-2.85-4a.68.68,0,0,0-.44-.28Z"/><path class="cls-1" d="M31.55,29.32a2.46,2.46,0,0,1-2-1L27.21,25a2.44,2.44,0,0,1,.58-3.39l.59-.42a2.45,2.45,0,0,1,1.82-.41,2.39,2.39,0,0,1,1.57,1l2.35,3.32a2.44,2.44,0,0,1-.58,3.39l-.59.42A2.39,2.39,0,0,1,31.55,29.32Zm-1.77-6.91a.76.76,0,0,0-.43.14l-.58.41A.75.75,0,0,0,28.59,24l2.35,3.31a.76.76,0,0,0,1,.18l.58-.42a.72.72,0,0,0,.31-.48.75.75,0,0,0-.13-.56L30.4,22.73a.8.8,0,0,0-.49-.31Z"/><path class="cls-1" d="M23.65,28.18a2.13,2.13,0,0,1-1-4L25,22.89a.85.85,0,0,1,.8,1.49l-2.37,1.27a.44.44,0,0,0-.16.65.44.44,0,0,0,.55.15L28.1,24.5a.85.85,0,0,1,1.12.42A.83.83,0,0,1,28.8,26L24.53,28A2.08,2.08,0,0,1,23.65,28.18Z"/><path class="cls-1" d="M20.26,26.91A2.5,2.5,0,0,1,19,22.25l6.89-4a.86.86,0,0,1,1.16.31.85.85,0,0,1-.31,1.15l-6.89,4a.79.79,0,0,0-.39.52.77.77,0,0,0,.13.64.8.8,0,0,0,1,.27L23,24a.85.85,0,1,1,.74,1.52l-2.35,1.14A2.41,2.41,0,0,1,20.26,26.91Z"/><path class="cls-1" d="M17.82,24.5a2.82,2.82,0,0,1-.7-.1,2.58,2.58,0,0,1-1.59-1.26,2.61,2.61,0,0,1,.92-3.49l6.76-4.15a.85.85,0,0,1,1.16.28.84.84,0,0,1-.27,1.16l-6.77,4.15A.94.94,0,0,0,17,22.33a1,1,0,0,0,.57.44.89.89,0,0,0,.71-.09l5.41-3.16a.84.84,0,0,1,1.15.3.85.85,0,0,1-.3,1.16l-5.41,3.16A2.63,2.63,0,0,1,17.82,24.5Z"/><path class="cls-1" d="M15.11,22a3.06,3.06,0,0,1-1.7-5.6l4.76-3.15a.85.85,0,0,1,1.17.23.86.86,0,0,1-.24,1.18l-4.75,3.15a1.36,1.36,0,0,0,.43,2.46,1.34,1.34,0,0,0,1.05-.17l2.65-1.67a.85.85,0,0,1,1.17.26.83.83,0,0,1-.27,1.16l-2.65,1.68A3,3,0,0,1,15.11,22Z"/><path class="cls-1" d="M47.23,19.65a.85.85,0,0,1-.78-.51l-.76-1.75L41.09,5.94,40.4,4.11A.83.83,0,0,1,40.88,3L47.82.31a.84.84,0,0,1,1.09.48l5.83,15.13a.86.86,0,0,1,0,.65.85.85,0,0,1-.47.44L47.53,19.6A.79.79,0,0,1,47.23,19.65ZM42.65,5.32l5,12.41,5.18-2L47.64,2.19l-5.37,2.1Z"/></g></g></svg>