<svg xmlns="http://www.w3.org/2000/svg" viewBox="0 0 37.84 35.76"><defs><style>.cls-1{fill:#fff;stroke:#fff;stroke-miterlimit:10;stroke-width:0.5px;}</style></defs><title>bellezaycuidadopersonal_1</title><g id="Capa_2" data-name="Capa 2"><g id="Capa_1-2" data-name="Capa 1"><path class="cls-1" d="M37.59,10a9.71,9.71,0,0,0-9.7-9.7c-1.77,0-5.26.81-10.55,2-3,.71-6.82,1.59-11.12,2.5L1,2.82a.62.62,0,0,0-.53.06.59.59,0,0,0-.24.47V16.54A.58.58,0,0,0,.49,17a.63.63,0,0,0,.32.1.52.52,0,0,0,.21,0l5.2-2c4.3.91,8.08,1.79,11.12,2.5,2.39.56,4.41,1,6.08,1.38l-.53,2.9H20.7a.57.57,0,0,0-.57.56v2.32H20a.57.57,0,0,0-.57.56V28.2a.57.57,0,0,0,.57.57h1.63l-.54,3a3.16,3.16,0,0,0,3.1,3.72h1.53a3.16,3.16,0,0,0,3.1-2.6L31.35,19A9.71,9.71,0,0,0,37.59,10Zm-1.18.85c0,.1,0,.19,0,.28s0,.38-.08.56-.06.21-.08.32-.08.32-.13.48-.08.22-.11.33l-.17.45c0,.11-.1.21-.15.32a3.11,3.11,0,0,1-.2.41c-.05.11-.12.21-.18.32s-.15.26-.23.38l-.21.3c-.09.12-.17.24-.27.35a3.11,3.11,0,0,1-.23.28l-.3.33-.26.25-.33.3-.29.23L32.8,17l-.31.21-.37.23-.33.17-.4.19c-.11.06-.23.1-.34.15s-.28.11-.42.15l-.36.12-.44.11-.37.08-.46.07-.38,0h-.16V15.23a5.31,5.31,0,0,0,0-10.56V1.41h.16l.38,0,.46.07.37.08.44.11.36.12.42.15.34.15.4.19.33.18.37.23a3.28,3.28,0,0,1,.31.2,3,3,0,0,1,.35.27,3.15,3.15,0,0,1,.29.22l.33.3c.08.09.17.17.26.26l.3.32.23.28c.1.12.18.24.27.36l.21.29.24.39a3.07,3.07,0,0,1,.17.31c.08.13.14.28.21.42s.1.21.14.31.12.3.17.46a3,3,0,0,1,.11.32c.05.16.09.33.13.49s0,.21.08.31.06.37.08.56,0,.19,0,.28a8.12,8.12,0,0,1,0,.86A7.94,7.94,0,0,1,36.41,10.8Zm-8.52-5A4.18,4.18,0,1,1,23.71,10,4.18,4.18,0,0,1,27.89,5.77ZM1.38,4.17l4.23,1.6v8.35l-4.23,1.6Zm5.36,9.88V5.84c4.19-.9,7.88-1.75,10.86-2.45a90.35,90.35,0,0,1,9.72-2V4.67a5.31,5.31,0,0,0,0,10.56v3.25a90.35,90.35,0,0,1-9.72-2C14.62,15.81,10.93,15,6.74,14.05Zm14.52,9h1.43l-.32,1.75H21.26Zm-.69,4.63V25.89h1.59l-.31,1.75Zm7.15,5.07a2,2,0,0,1-2,1.67H24.2a2,2,0,0,1-1.55-.73A2,2,0,0,1,22.21,32L24.53,19.2a19.75,19.75,0,0,0,3.36.44,9.74,9.74,0,0,0,2.24-.27Z"/></g></g></svg>