<svg xmlns="http://www.w3.org/2000/svg" viewBox="0 0 34.05 34.03"><defs><style>.cls-1{fill:#fff;}</style></defs><title>bodegas</title><g id="Capa_2" data-name="Capa 2"><g id="Capa_1-2" data-name="Capa 1"><path class="cls-1" d="M26.32,21.58H17.39a.51.51,0,0,0-.51.5v5.73a.51.51,0,0,0,.51.51h8.93a.51.51,0,0,0,.51-.51V22.08A.51.51,0,0,0,26.32,21.58Zm-5,5.71H17.9V22.6h3.44Zm4.46,0H22.37V22.6H25.8Z"/><path class="cls-1" d="M33.54,33H30.31V19.36c.16,0,.31,0,.47,0a3.18,3.18,0,0,0,3.27-3.1h0a.47.47,0,0,0,0-.17v0L33.94,16l-3.63-4.75V3.61h.9a.52.52,0,0,0,.52-.52V.52A.52.52,0,0,0,31.21,0H2.84a.52.52,0,0,0-.52.52V3.09a.52.52,0,0,0,.52.52h.9v7.63L.11,16a.47.47,0,0,0-.06.09v0a.85.85,0,0,0,0,.17H0a3.19,3.19,0,0,0,3.27,3.1c.16,0,.31,0,.47,0V33H.52a.52.52,0,1,0,0,1h33a.52.52,0,0,0,0-1ZM30.78,18.36a2.21,2.21,0,0,1-2.16-1.54H33A2.23,2.23,0,0,1,30.78,18.36Zm-26-7.46V3.61H29.28V10.9H4.77Zm3.94,1h3.36l-.66,2.67-.29,1.16H6.85Zm4.13,1.17.29-1.17h3.38v3.83H12.18Zm4.71-1.17h3.38l.95,3.83H17.55Zm5.39,3.83-1-3.83h3.36l1.86,3.83Zm-12,1.05a2.2,2.2,0,0,1-2.15,1.54,2.21,2.21,0,0,1-2.17-1.54Zm5.51,0a2.29,2.29,0,0,1-4.33,0Zm5.51,0a2.3,2.3,0,0,1-4.34,0Zm5.5,0a2.29,2.29,0,0,1-4.33,0Zm.91-1.05L26.5,11.94h3l3,3.83Zm-25-13.2V1H30.7V2.57Zm1.16,9.37H7.56L5.7,15.77H1.56ZM1.1,16.82H5.43a2.22,2.22,0,0,1-2.16,1.54A2.23,2.23,0,0,1,1.1,16.82ZM13.42,33H8.25V28.32h5.17Zm0-5.71H8.25V22.6h5.17Zm1,5.71V22.08a.51.51,0,0,0-.51-.5H7.74a.51.51,0,0,0-.51.5V33H4.77V19A3.28,3.28,0,0,0,6,18a3.36,3.36,0,0,0,5.5,0A3.37,3.37,0,0,0,17,18a3.35,3.35,0,0,0,5.5,0A3.36,3.36,0,0,0,28,18,3.24,3.24,0,0,0,29.28,19V33Z"/><path class="cls-1" d="M10.54,8.81V5.71A.52.52,0,0,0,10,5.19H7.22a.51.51,0,0,0-.51.52v3.1a.51.51,0,0,0,.51.52H10A.52.52,0,0,0,10.54,8.81Zm-1-.51H7.74V6.22H9.51Z"/><path class="cls-1" d="M12.83,9.33h2.8a.51.51,0,0,0,.51-.52V5.71a.51.51,0,0,0-.51-.52h-2.8a.52.52,0,0,0-.52.52v3.1A.52.52,0,0,0,12.83,9.33Zm.51-3.11h1.77V8.3H13.34Z"/><path class="cls-1" d="M18.43,9.33h2.8a.52.52,0,0,0,.52-.52V5.71a.52.52,0,0,0-.52-.52h-2.8a.52.52,0,0,0-.52.52v3.1A.52.52,0,0,0,18.43,9.33Zm.51-3.11h1.77V8.3H18.94Z"/><path class="cls-1" d="M24,9.33h2.8a.51.51,0,0,0,.51-.52V5.71a.51.51,0,0,0-.51-.52H24a.52.52,0,0,0-.52.52v3.1A.52.52,0,0,0,24,9.33Zm.52-3.11h1.76V8.3H24.55Z"/></g></g></svg>