<svg xmlns="http://www.w3.org/2000/svg" viewBox="0 0 42.73 45.81"><defs><style>.cls-1{fill:#13bf9e;}</style></defs><title>contadores</title><g id="Capa_2" data-name="Capa 2"><g id="Capa_1-2" data-name="Capa 1"><path class="cls-1" d="M37.36,33.16c-2.67,0-5.37-.71-5.37-2.29s2.7-2.3,5.37-2.3,5.37.71,5.37,2.3S40,33.16,37.36,33.16Zm-3.83-2.29a6.87,6.87,0,0,0,3.83.8,6.93,6.93,0,0,0,3.83-.8,6.93,6.93,0,0,0-3.83-.8A6.87,6.87,0,0,0,33.53,30.87Z"/><path class="cls-1" d="M37.36,37.38c-2.67,0-5.37-.71-5.37-2.29V30.87a.75.75,0,0,1,1.49-.06c.2.27,1.52.86,3.88.86s3.68-.59,3.88-.86a.75.75,0,0,1,1.49.06v4.22C42.73,36.67,40,37.38,37.36,37.38ZM33.48,35c.21.27,1.53.85,3.88.85S41,35.31,41.24,35V32.53a12,12,0,0,1-7.76,0Z"/><path class="cls-1" d="M37.36,41.61c-2.67,0-5.37-.71-5.37-2.3V35.09A.75.75,0,0,1,33.48,35c.2.27,1.52.86,3.88.86S41,35.3,41.24,35a.75.75,0,0,1,1.49.06v4.22C42.73,40.9,40,41.61,37.36,41.61Zm-3.88-2.35c.21.27,1.53.85,3.88.85s3.67-.58,3.88-.85v-2.5a12.13,12.13,0,0,1-7.76,0Z"/><path class="cls-1" d="M37.36,45.81c-2.67,0-5.37-.71-5.37-2.29V39.3a.75.75,0,0,1,1.49-.06c.2.27,1.52.86,3.88.86s3.68-.59,3.88-.86a.75.75,0,0,1,1.49.06v4.22C42.73,45.1,40,45.81,37.36,45.81Zm-3.88-2.35c.21.28,1.53.86,3.88.86s3.67-.58,3.88-.86V41a12,12,0,0,1-7.76,0Z"/><path class="cls-1" d="M22.8,26.9c-2.68,0-5.37-.71-5.37-2.3s2.69-2.29,5.37-2.29c.35,0,.7,0,1.05,0l-.11,1.49c-.31,0-.62,0-.94,0a7,7,0,0,0-3.83.8,6.84,6.84,0,0,0,3.83.81c.33,0,.65,0,1,0l.11,1.49C23.53,26.89,23.16,26.9,22.8,26.9Z"/><path class="cls-1" d="M22.8,31.12c-2.68,0-5.37-.71-5.37-2.29V24.6a.75.75,0,0,1,1.49-.05c.2.27,1.52.86,3.88.86V26.9a10.56,10.56,0,0,1-3.88-.63v2.5c.21.27,1.53.86,3.88.86Z"/><path class="cls-1" d="M22.8,35.34c-2.68,0-5.37-.71-5.37-2.29V28.83a.75.75,0,0,1,1.49-.06c.2.27,1.52.86,3.88.86q.42,0,.84,0l.09,1.49a11.59,11.59,0,0,1-4.81-.6V33c.21.27,1.53.86,3.88.86.29,0,.59,0,.87,0l.1,1.49C23.46,35.33,23.13,35.34,22.8,35.34Z"/><path class="cls-1" d="M22.8,39.55c-2.68,0-5.37-.71-5.37-2.3V33A.75.75,0,0,1,18.92,33c.2.27,1.52.86,3.88.86v1.49a10.56,10.56,0,0,1-3.88-.63v2.5c.21.27,1.53.86,3.88.86.35,0,.69,0,1,0L24,39.5C23.57,39.53,23.19,39.55,22.8,39.55Z"/><path class="cls-1" d="M29.61,20.57c-2.67,0-5.37-.71-5.37-2.3S26.94,16,29.61,16,35,16.69,35,18.27,32.28,20.57,29.61,20.57Zm-3.83-2.3a6.9,6.9,0,0,0,3.83.81,6.84,6.84,0,0,0,3.83-.81,7,7,0,0,0-3.83-.8A7,7,0,0,0,25.78,18.27Z"/><path class="cls-1" d="M29.61,24.79c-2.67,0-5.37-.71-5.37-2.3V18.27a.75.75,0,0,1,1.49-.05c.2.27,1.53.86,3.88.86s3.68-.59,3.88-.86a.75.75,0,0,1,1.49.05v4.22C35,24.08,32.28,24.79,29.61,24.79Zm-3.88-2.35c.21.27,1.54.86,3.88.86s3.67-.59,3.88-.86v-2.5a12.13,12.13,0,0,1-7.76,0Z"/><path class="cls-1" d="M29.61,29c-2.67,0-5.37-.71-5.37-2.29V22.49a.75.75,0,0,1,1.49,0c.2.27,1.53.86,3.88.86s3.68-.59,3.88-.86a.75.75,0,0,1,1.49,0v4.23C35,28.3,32.28,29,29.61,29Zm-3.88-2.35c.21.27,1.54.86,3.88.86s3.67-.59,3.88-.86v-2.5a12.06,12.06,0,0,1-7.76,0Z"/><path class="cls-1" d="M29.61,33.22c-2.67,0-5.37-.71-5.37-2.3V26.7a.75.75,0,0,1,1.49-.05c.2.26,1.53.85,3.88.85s3.68-.59,3.88-.85A.75.75,0,0,1,35,26.7v1.48h-1.1c-1.94,1.05-6,1.1-8.15.19v2.5c.21.27,1.54.86,3.88.86Z"/><path class="cls-1" d="M29.61,37.45c-2.67,0-5.37-.71-5.37-2.3V30.93a.75.75,0,0,1,1.49-.06c.2.27,1.53.86,3.88.86a13.25,13.25,0,0,0,1.7-.11l.21,1.47a12.35,12.35,0,0,1-5.79-.49v2.5c.21.27,1.54.85,3.88.85a13.44,13.44,0,0,0,1.72-.11l.22,1.47A13.52,13.52,0,0,1,29.61,37.45Z"/><path class="cls-1" d="M29.61,41.65c-2.67,0-5.37-.71-5.37-2.29V35.14a.75.75,0,0,1,1.49-.06c.2.27,1.53.86,3.88.86v1.49a10.63,10.63,0,0,1-3.88-.63v2.5c.21.27,1.54.86,3.88.86a13.09,13.09,0,0,0,1.56-.09l.19,1.47A12.46,12.46,0,0,1,29.61,41.65Z"/><path class="cls-1" d="M8.72,9.45h-5V8H8V3.68H9.46v5A.74.74,0,0,1,8.72,9.45Z"/><path class="cls-1" d="M13.59,36.09H.75A.74.74,0,0,1,0,35.35V6a.74.74,0,0,1,.22-.52L5.45.22A.75.75,0,0,1,6,0H28.66a.75.75,0,0,1,.75.75V14H27.92V1.49H6.28L1.49,6.28V34.6h12.1Z"/><rect class="cls-1" x="6.95" y="14.15" width="10.06" height="1.49"/><rect class="cls-1" x="6.95" y="18.82" width="15.08" height="1.49"/><rect class="cls-1" x="6.95" y="23.3" width="7.27" height="1.49"/></g></g></svg>