<svg xmlns="http://www.w3.org/2000/svg" viewBox="0 0 28.07 33.24"><defs><style>.cls-1{fill:none;stroke:#fff;stroke-miterlimit:10;}</style></defs><title>dulceriasycafeterias</title><g id="Capa_2" data-name="Capa 2"><g id="Capa_1-2" data-name="Capa 1"><path class="cls-1" d="M21.62,20H.75c-.05-.48-.1-1-.18-1.49H21.8C21.73,19.06,21.67,19.56,21.62,20ZM27.1,27.2a4.34,4.34,0,0,1-3.4,2.12,6.46,6.46,0,0,1-.92.05,17.76,17.76,0,0,1-2.6-.22A5.88,5.88,0,0,1,16,31.73v1H6.35v-1C.78,30.5,1.3,26.68.84,21h20.7l0,.41c2.06-.25,4.42,0,5.51,1.91A3.89,3.89,0,0,1,27.1,27.2Zm-1.25-3.38c-.78-1.17-2.69-1.5-4.44-1.06a26.72,26.72,0,0,1-.52,4.62,8.44,8.44,0,0,0,2.34.3,3.37,3.37,0,0,0,2.62-1A2.76,2.76,0,0,0,25.85,23.82ZM6.28,8.84c-1.47,3.46-.91,6.38.42,8.05C6.45,13.46,6.48,12,7.85,9.12s-1.22-4.78-3-5.58A4.22,4.22,0,0,1,6.28,8.84Zm7.85-.22c-1.46,3.47-.91,6.38.42,8.06-.25-3.44-.22-4.89,1.15-7.77s-1.21-4.78-3-5.58A4.2,4.2,0,0,1,14.13,8.62ZM10.22,5.75c-1.46,3.46-.91,6.38.42,8.05-.25-3.43-.22-4.89,1.15-7.77s-1.22-4.78-3-5.57A4.2,4.2,0,0,1,10.22,5.75Z"/></g></g></svg>