<svg xmlns="http://www.w3.org/2000/svg" viewBox="0 0 50.32 29.46"><defs><style>.cls-1{fill:#fff;stroke:#fff;stroke-miterlimit:10;stroke-width:0.5px;}</style></defs><title>educacion_1</title><g id="Capa_2" data-name="Capa 2"><g id="Capa_1-2" data-name="Capa 1"><path class="cls-1" d="M7.08,15.9A2,2,0,0,0,5.9,19.09l-.84,5a.7.7,0,0,0,.16.59.71.71,0,0,0,.56.26H9.22a.73.73,0,0,0,.56-.25.72.72,0,0,0,.17-.58L9.23,18.9a2,2,0,0,0,.29-1,2,2,0,0,0-1-1.72V13.46l4.53,2V26.69a2.52,2.52,0,0,0,2.52,2.52H36.3a2.52,2.52,0,0,0,2.52-2.52v-12l10.81-4.69a.74.74,0,0,0-.06-1.37L25,.29a.69.69,0,0,0-.49,0C16.08,3.48,2.26,8.56,1,8.64a.74.74,0,0,0-.29,1.41l6.39,2.77Zm-.43,7.56L7.4,19a.72.72,0,0,0-.25-.68.58.58,0,0,1-.2-.42.55.55,0,1,1,1.1,0,.55.55,0,0,1-.14.36.72.72,0,0,0-.17.58l.64,4.65Zm30.7,3.23a1,1,0,0,1-1.05,1H15.6a1,1,0,0,1-1-1V16.06l10.32,4.48a.73.73,0,0,0,.58,0l11.9-5.17ZM3.21,9.54C8.53,7.88,21.29,3.08,24.77,1.76L47.3,9.46l-22.14,9.6L10.54,12.72l12.34-1.63a4.49,4.49,0,0,0,2.28.54c1.7,0,3-.68,3-1.58s-1.29-1.58-3-1.58c-1.47,0-2.62.51-2.91,1.22L7.92,11.58Zm19.7.51c0-.34.88-.84,2.25-.84s2.25.5,2.25.84-.88.84-2.25.84S22.91,10.39,22.91,10.05Z"/></g></g></svg>