<svg xmlns="http://www.w3.org/2000/svg" viewBox="0 0 34.35 35.73"><defs><style>.cls-1{fill:#fff;}</style></defs><title>farmacias</title><g id="Capa_2" data-name="Capa 2"><g id="Capa_1-2" data-name="Capa 1"><path class="cls-1" d="M17.17,35.73h.13c9.47-.07,17.12-8.14,17.05-18A18.06,18.06,0,0,0,29.24,5.16,16.75,16.75,0,0,0,17.06,0C7.58.07-.07,8.14,0,18H0A18.1,18.1,0,0,0,5.11,30.57,16.72,16.72,0,0,0,17.17,35.73Zm-.1-34h.11A15.06,15.06,0,0,1,28,6.34a16.46,16.46,0,0,1,4.63,11.41c.06,8.92-6.84,16.23-15.38,16.3a15,15,0,0,1-11-4.65A16.39,16.39,0,0,1,1.69,18C1.62,9.06,8.53,1.75,17.07,1.68Z"/><path class="cls-1" d="M12.85,30.72H21.5V22.34h8V13.39h-8V5H12.85v8.38h-8v9h8.05ZM10.7,20.65H6.49V15.08h8V6.7h5.28v8.38h8.05v5.57h-8V29H14.53V20.65Z"/></g></g></svg>