<svg xmlns="http://www.w3.org/2000/svg" viewBox="0 0 47.95 44.08"><defs><style>.cls-1{fill:#13bf9e;}</style></defs><title>rehabilitacion</title><g id="Capa_2" data-name="Capa 2"><g id="Capa_1-2" data-name="Capa 1"><path class="cls-1" d="M16.56,8.35a4.18,4.18,0,1,0-4.13-4.18A4.17,4.17,0,0,0,16.56,8.35Zm0-7.5a3.32,3.32,0,1,1-3.28,3.32A3.31,3.31,0,0,1,16.56.85Z"/><path class="cls-1" d="M46.73,29.14h-1a4.43,4.43,0,1,0-5.17,0h-1.6a5.73,5.73,0,0,0-5.68-5.33H27.73l-1.86-9.95,1.67,1.57,1,4.17a2,2,0,0,0,.91,1.25,2,2,0,0,0,1.51.24,2,2,0,0,0,1.5-2.44l-1.14-4.79a2.11,2.11,0,0,0-.59-1L24.61,7.13c-.93-.86-5.82.89-6,1-2.07.75-4.58,1.9-4.73,3.12l-.95,7.43H10.26a2.07,2.07,0,0,0-.15,4.14,2,2,0,0,0,.69,1.66,2,2,0,0,0,1.32.5h.14a2,2,0,0,0,1.37-.69L14.9,22.8h1l2.87,2.84-.18.2H5.05a2.07,2.07,0,0,0-1.66,3.3H1.22A1.23,1.23,0,0,0,0,30.37v1.68A1.24,1.24,0,0,0,1.22,33.3H3.36V43.65a.42.42,0,0,0,.42.43H5.53A.43.43,0,0,0,6,43.65V33.3H16.79l-.48,8.31a2.28,2.28,0,0,0,.58,1.69,2.25,2.25,0,0,0,1.57.76h.15a2.28,2.28,0,0,0,2.27-2.17l.52-8.59h1.82l.69,8.63a2.32,2.32,0,0,0,.81,1.57,2.26,2.26,0,0,0,1.48.55h.19a2.32,2.32,0,0,0,2.1-2.5l-.66-8.24H42V43.65a.42.42,0,0,0,.42.43h1.76a.42.42,0,0,0,.42-.43V33.3h2.14A1.24,1.24,0,0,0,48,32.05V30.37A1.23,1.23,0,0,0,46.73,29.14Zm-7.18-3.63a3.58,3.58,0,1,1,3.57,3.63A3.59,3.59,0,0,1,39.55,25.51ZM14.69,11.33c0-.09.14-.54,1.65-1.34C19.22,8.46,23.5,7.49,24,7.75l6.12,5.76a1.3,1.3,0,0,1,.35.57l1.13,4.77a1.17,1.17,0,0,1-1.74,1.27,1.16,1.16,0,0,1-.52-.72l-1-4.29a.45.45,0,0,0-.12-.21L25.5,12.34a.42.42,0,0,0-.49-.06.44.44,0,0,0-.22.45l2.08,11.08H22.75l-.09-.1-4.48-4.46h0a1.64,1.64,0,0,0-.33-.26h0a1.62,1.62,0,0,0-.37-.19h0l-.17-.06h-.1l-.08,0,.51-4a.43.43,0,1,0-.85-.11l-.51,4.11H13.76ZM13,23.7a1.17,1.17,0,0,1-2-.9h2.81ZM16.06,22h-5.8a1.23,1.23,0,0,1,0-2.45h6.18l.65.06h0l.13.06.11.06.21.16,4.1,4.08a5.62,5.62,0,0,0-1.59.63l-.14.08-.26.18a2.83,2.83,0,0,0-.28.2l-.05,0-3-3A.43.43,0,0,0,16.06,22Zm-12.22,6a1.22,1.22,0,0,1,1.21-1.22H18.77a.42.42,0,0,0,.34-.17,4.84,4.84,0,0,1,.7-.73l.1-.08a4.77,4.77,0,0,1,3-1.05H33.26a4.87,4.87,0,0,1,4.83,4.48H22a.71.71,0,0,1-.71-.72.73.73,0,0,1,.71-.73H34.3a.43.43,0,1,0,0-.85H22a1.57,1.57,0,0,0-1.56,1.58,1.6,1.6,0,0,0,.18.72H5.05A1.23,1.23,0,0,1,3.84,27.91ZM5.11,43.22h-.9V33.3h.9ZM20,41.84a1.45,1.45,0,0,1-.48,1,1.44,1.44,0,0,1-2.39-1.19l.48-8.36h2.91Zm7.61-.23a1.45,1.45,0,1,1-2.88.25l-.69-8.56H27Zm16.1,1.61h-.9V33.3h.9ZM47.1,32.05a.39.39,0,0,1-.37.39H1.22a.39.39,0,0,1-.37-.39V30.37A.38.38,0,0,1,1.22,30H46.73a.38.38,0,0,1,.37.38Z"/></g></g></svg>