<svg xmlns="http://www.w3.org/2000/svg" viewBox="0 0 38.92 39.33"><defs><style>.cls-1{fill:none;stroke:#fff;stroke-miterlimit:10;stroke-width:2px;}</style></defs><title>infantil_1</title><g id="Capa_2" data-name="Capa 2"><g id="Capa_1-2" data-name="Capa 1"><path id="_38" data-name="38" class="cls-1" d="M28.08,17A2.05,2.05,0,0,1,26,19.05H12.9A2,2,0,0,1,10.85,17V3.05A2,2,0,0,1,12.9,1H26a2.05,2.05,0,0,1,2.06,2.05Zm-9.85,5.33a2.05,2.05,0,0,0-2.05-2H3.05a2.05,2.05,0,0,0-2,2v14a2.05,2.05,0,0,0,2.05,2H16.18a2.05,2.05,0,0,0,2.05-2Zm19.69,0a2.05,2.05,0,0,0-2.05-2H22.74a2.05,2.05,0,0,0-2,2v14a2.05,2.05,0,0,0,2,2H35.87a2.05,2.05,0,0,0,2.05-2ZM20.29,4.7h-1.7l-4,10.65h1.94l1-2.93H21.2l1,2.93h2.05Zm-1.41,4c.07-.18.13-.35.17-.48s.09-.27.13-.39.08-.25.11-.37L19.4,7c.08.26.16.51.23.75s.17.54.3.89l.73,2.17h-2.5Zm-13.25,26h4.59a3.7,3.7,0,0,0,2.55-.75,2.59,2.59,0,0,0,.83-2.06v-.37a2.26,2.26,0,0,0-.6-1.69A2.75,2.75,0,0,0,11.43,29a2.68,2.68,0,0,0,.8-.33,1.91,1.91,0,0,0,.52-.5,1.65,1.65,0,0,0,.28-.62,2.61,2.61,0,0,0,.08-.69v-.31c0-1.73-1.11-2.6-3.35-2.6H5.63ZM9,25.55a4.49,4.49,0,0,1,1.72.23.88.88,0,0,1,.52.9V27a1.66,1.66,0,0,1-.15.78,1,1,0,0,1-.44.4,2.13,2.13,0,0,1-.73.16c-.29,0-.61,0-1,0H7.5V25.55ZM7.5,29.86H8.94a9.21,9.21,0,0,1,1.27.07,2.48,2.48,0,0,1,.85.23,1.08,1.08,0,0,1,.47.45,1.52,1.52,0,0,1,.14.68v.33a1.61,1.61,0,0,1-.15.75,1.06,1.06,0,0,1-.45.44,2.21,2.21,0,0,1-.77.2,8.71,8.71,0,0,1-1.08.05H7.5Zm20.34-5.77a3.59,3.59,0,0,0-1.41.83,3.92,3.92,0,0,0-1,1.43,5.59,5.59,0,0,0-.34,2.06v1.91a5.21,5.21,0,0,0,.35,2,3.86,3.86,0,0,0,.95,1.38,3.64,3.64,0,0,0,1.39.8,5.38,5.38,0,0,0,1.66.25c.3,0,.61,0,.95,0a5.56,5.56,0,0,0,1-.2,6,6,0,0,0,1-.43,4,4,0,0,0,1-.75l-1-1.44a3.32,3.32,0,0,1-1.41.88,5.41,5.41,0,0,1-1.51.22,2.76,2.76,0,0,1-1-.16,2.22,2.22,0,0,1-.81-.54,2.78,2.78,0,0,1-.55-1A4.33,4.33,0,0,1,27,29.93V28.84a5.19,5.19,0,0,1,.22-1.62,2.71,2.71,0,0,1,.58-1,2.06,2.06,0,0,1,.81-.51,3.33,3.33,0,0,1,.93-.14,5.39,5.39,0,0,1,1.36.17,3.51,3.51,0,0,1,1.29.72l1-1.45a5,5,0,0,0-1.67-.91,6.7,6.7,0,0,0-2-.27A5.36,5.36,0,0,0,27.84,24.09Z"/></g></g></svg>