<svg xmlns="http://www.w3.org/2000/svg" viewBox="0 0 29.62 46.42"><defs><style>.cls-1{fill:none;stroke:#fff;stroke-miterlimit:10;}</style></defs><title>licorerias</title><g id="Capa_2" data-name="Capa 2"><g id="Capa_1-2" data-name="Capa 1"><path class="cls-1" d="M10.7,23.93V34.39a25.39,25.39,0,0,1-3.84.29A25.14,25.14,0,0,1,3,34.39V23.93c0-.13.07-3.23,3.84-3.23S10.7,23.8,10.7,23.93ZM4.53,7s0,.63,0,1.4h.64V3.59h.91V8.42H9.2c0-.77,0-1.4,0-1.4h0v-4h.24V1.19H9.19V.5H6.07v.69h-.2V3h-1V1.19h.24V.5H4.53v.69H4.29V3.06h.24ZM12,14.29c.92,1.17,1.2,2.28,1.2,4.73V44.26c0,.92-2.85,1.66-6.36,1.66S.5,45.18.5,44.26V19c0-2.45.28-3.56,1.2-4.73C2.88,12.81,4.44,12,4.48,10.93c0-.36,0-.9,0-1.46h.65v1.4A4.1,4.1,0,0,1,4,13.55l-.12.12C2.46,15,1.35,16,1.35,19.05V44.36l.91.36V19.05c0-2.62.84-3.41,2.22-4.72l.13-.12a5,5,0,0,0,1.46-3.34V9.47H9.21c0,.56,0,1.1,0,1.46C9.28,12,10.84,12.81,12,14.29Zm-.75,9.54s0-3.78-4.41-3.78-4.4,3.78-4.4,3.78V35a23.5,23.5,0,0,0,4.4.38A24.23,24.23,0,0,0,11.27,35ZM24.76,37.57v7.32h3v.38H21.09v-.38h3V37.57h0s0-1.86,0-2.6S21.89,33.65,21,32.74a3.74,3.74,0,0,1-1.23-3.14c.11-2,1.31-7.78,1.31-7.78h6.7s1.2,5.83,1.31,7.78a3.69,3.69,0,0,1-1.24,3.14c-.87.9-3.05,1.49-3.08,2.23S24.76,37.57,24.76,37.57Zm3.39-10.26-.67-5.09h-6l-.72,5.09h.48c-.35,4.74.78,5.22,2.4,6-1.49-1.17-1.7-3.66-1.51-6Z"/></g></g></svg>