<svg xmlns="http://www.w3.org/2000/svg" viewBox="0 0 38 38"><defs><style>.cls-1{fill:#13bf9e;}</style></defs><title>mecanica</title><g id="Capa_2" data-name="Capa 2"><g id="Capa_1-2" data-name="Capa 1"><path class="cls-1" d="M30.5,23.28a7.58,7.58,0,0,0-1.72.23L24.27,19l4.51-4.5a8.18,8.18,0,0,0,1.72.22h.06a7.34,7.34,0,0,0,5.26-2.19,7.4,7.4,0,0,0,1.69-7.88.86.86,0,0,0-.64-.54.88.88,0,0,0-.81.24l-4,4L29.64,6l4-4a.9.9,0,0,0,.24-.81.91.91,0,0,0-.55-.64,7.39,7.39,0,0,0-7.93,1.74,7.54,7.54,0,0,0-1.88,7L19,13.73,14.5,9.22a8.1,8.1,0,0,0,.22-1.72A7.43,7.43,0,0,0,4.65.49a.89.89,0,0,0-.3,1.45l4,4L6,8.36l-4-4a.89.89,0,0,0-1.45.3,7.38,7.38,0,0,0,7,10,7.81,7.81,0,0,0,1.74-.21L13.73,19,9.19,23.54a7.54,7.54,0,0,0-7,1.88A7.39,7.39,0,0,0,.49,33.35a.88.88,0,0,0,.64.54.87.87,0,0,0,.81-.23L6,29.59,8.42,32,4.35,36.06a.88.88,0,0,0-.24.81.86.86,0,0,0,.54.64A7.29,7.29,0,0,0,7.28,38a7.44,7.44,0,0,0,7.44-7.5,8.18,8.18,0,0,0-.22-1.72L19,24.27l4.54,4.54a7.54,7.54,0,0,0,1.88,7A7.41,7.41,0,0,0,30.72,38a7.25,7.25,0,0,0,2.63-.49.89.89,0,0,0,.55-.64.91.91,0,0,0-.24-.81L29.59,32,32,29.59l4.06,4.07a.87.87,0,0,0,.81.23.86.86,0,0,0,.64-.54,7.4,7.4,0,0,0-1.69-7.88A7.29,7.29,0,0,0,30.5,23.28ZM26.39,3.18a6.07,6.07,0,0,1,4.33-1.82,5.69,5.69,0,0,1,1.42.17l-3.8,3.8a.91.91,0,0,0,0,1.25l3.09,3.08a.84.84,0,0,0,.62.26.87.87,0,0,0,.62-.26l3.8-3.8a6,6,0,0,1-1.61,5.71,6,6,0,0,1-4.34,1.79,5.84,5.84,0,0,1-4.21-1.79A6.11,6.11,0,0,1,26.39,3.18ZM3.18,11.61A6.06,6.06,0,0,1,1.53,5.86l3.8,3.8a.88.88,0,0,0,1.25,0L9.66,6.58a.88.88,0,0,0,0-1.25l-3.8-3.8a6.09,6.09,0,0,1,7.5,6,5.82,5.82,0,0,1-1.79,4.2A6.11,6.11,0,0,1,3.18,11.61ZM10.61,14a6.62,6.62,0,0,0,1.9-1.3,7.45,7.45,0,0,0,1.48-2l4,4-1.2,1.2L14.3,13.34a.68.68,0,0,0-1,1l2.55,2.54L14.69,18Zm1,20.89a6,6,0,0,1-5.71,1.61l3.85-3.86a.86.86,0,0,0,0-1.24L6.63,28.29a.86.86,0,0,0-1.24,0L1.53,32.14a6.06,6.06,0,0,1,10-5.83,5.82,5.82,0,0,1,1.79,4.21A6,6,0,0,1,11.57,34.86ZM14,27.37a7.34,7.34,0,0,0-1.48-2A6.39,6.39,0,0,0,10.61,24L24,10.61a6.59,6.59,0,0,0,1.29,1.9,7.34,7.34,0,0,0,2,1.48Zm6-4.06,1.2-1.19,2.48,2.49a.71.71,0,0,0,1,0,.7.7,0,0,0,0-1l-2.49-2.48L23.31,20,27.37,24a7.11,7.11,0,0,0-2,1.47A6.73,6.73,0,0,0,24,27.39Zm16.51,8.83-3.86-3.85a.86.86,0,0,0-1.24,0l-3.08,3.08a.86.86,0,0,0,0,1.24l3.85,3.86a6,6,0,0,1-5.75-1.65,6.11,6.11,0,0,1-.08-8.39,5.84,5.84,0,0,1,4.21-1.79h0a6.09,6.09,0,0,1,5.91,7.5Z"/><path class="cls-1" d="M24.66,14.3,14.36,24.61a.73.73,0,0,1-.48.19.71.71,0,0,1-.48-.19.68.68,0,0,1,0-1l10.3-10.3a.69.69,0,0,1,1,0A.67.67,0,0,1,24.66,14.3Z"/></g></g></svg>