<svg xmlns="http://www.w3.org/2000/svg" viewBox="0 0 41.76 46.07"><defs><style>.cls-1{fill:#13bf9e;}</style></defs><title>petshop</title><g id="Capa_2" data-name="Capa 2"><g id="Capa_1-2" data-name="Capa 1"><path class="cls-1" d="M5.24,10.28H36.55l1.24,14,2-.17L38.37,8.29H30L28.69,0H13.07L11.75,8.29H3.38L2.32,24.13l2,.13ZM14.77,2H27l1,6.3H13.76Z"/><polygon class="cls-1" points="36.86 44.08 5.55 44.08 4.3 30.07 2.32 30.25 3.73 46.07 38.72 46.07 39.77 30.23 37.79 30.1 36.86 44.08"/><rect class="cls-1" x="7.96" y="13.92" width="1.99" height="7.29"/><rect class="cls-1" x="13.92" y="13.92" width="1.99" height="7.29"/><rect class="cls-1" x="19.89" y="13.92" width="1.99" height="7.29"/><rect class="cls-1" x="25.85" y="13.92" width="1.99" height="7.29"/><rect class="cls-1" x="31.82" y="13.92" width="1.99" height="7.29"/><rect class="cls-1" x="7.96" y="33.15" width="1.99" height="7.29"/><rect class="cls-1" x="13.92" y="33.15" width="1.99" height="7.29"/><rect class="cls-1" x="19.89" y="33.15" width="1.99" height="7.29"/><rect class="cls-1" x="25.85" y="33.15" width="1.99" height="7.29"/><rect class="cls-1" x="31.82" y="33.15" width="1.99" height="7.29"/><polygon class="cls-1" points="16.28 3.81 16.16 7.01 18.15 7.08 18.19 5.8 23.57 5.8 23.62 7.08 25.61 7.01 25.49 3.81 16.28 3.81"/><rect class="cls-1" y="26.19" width="41.76" height="1.99"/></g></g></svg>