<svg xmlns="http://www.w3.org/2000/svg" viewBox="0 0 41.02 46.37"><defs><style>.cls-1{fill:#13bf9e;}</style></defs><title>podologia</title><g id="Capa_2" data-name="Capa 2"><g id="Capa_1-2" data-name="Capa 1"><path class="cls-1" d="M5.55,46.37c-2.26,0-4.16-.73-5-2a3,3,0,0,1-.24-3,3.22,3.22,0,0,1,.92-1.46,1.68,1.68,0,0,1,1.3-.22A6.86,6.86,0,0,0,6.23,39c5.27-2.18,12-8.51,17.13-38.39A.72.72,0,0,1,24.2,0a.74.74,0,0,1,.6.85c-2.36,13.7-5.2,23.54-8.68,30.05s-7,8.46-9.33,9.44a8.11,8.11,0,0,1-4.43.8l-.31,0a3.22,3.22,0,0,0-.4.81,1.59,1.59,0,0,0,.08,1.63C2.36,44.46,4,45,6,44.9a7,7,0,0,0,2.3-.39,9.43,9.43,0,0,1,4-.38c3,.1,4-1.26,5.48-3.15.47-.61.95-1.25,1.54-1.89,2-2.21,6.19-3.68,9.54-4.86,1-.37,2-.71,2.81-1a3.15,3.15,0,0,0,1.89-2.57,6.19,6.19,0,0,0-2.09-5.42c-.95-.82-1-2.59-.21-5.58a62.3,62.3,0,0,1,3.05-8.2c2.46-5.62,5.33-11,5.36-11a.73.73,0,0,1,1-.3.74.74,0,0,1,.3,1S38.07,6.45,35.63,12a61.82,61.82,0,0,0-3,8c-.9,3.32-.36,4-.25,4.08A7.65,7.65,0,0,1,35,30.85a4.59,4.59,0,0,1-2.78,3.7c-.83.34-1.83.69-2.88,1.06-3.19,1.13-7.17,2.53-8.95,4.47a20.7,20.7,0,0,0-1.45,1.79c-1.51,2-2.93,3.85-6.7,3.73a7.9,7.9,0,0,0-3.48.3A8.37,8.37,0,0,1,6,46.36Z"/><path class="cls-1" d="M26.6,30.32A.73.73,0,0,1,26.2,29a1.54,1.54,0,0,0-.36-2.77.73.73,0,0,1,.44-1.4,3,3,0,0,1,.71,5.4A.7.7,0,0,1,26.6,30.32Z"/></g></g></svg>