<svg xmlns="http://www.w3.org/2000/svg" viewBox="0 0 53.05 30.51"><defs><style>.cls-1{fill:none;stroke:#fff;stroke-miterlimit:10;stroke-width:2px;}</style></defs><title>restaurantes_1</title><g id="Capa_2" data-name="Capa 2"><g id="Capa_1-2" data-name="Capa 1"><path class="cls-1" d="M52.05,27.58A2,2,0,0,1,50,29.51H3.1a1.94,1.94,0,1,1,0-3.86H50A2,2,0,0,1,52.05,27.58ZM29,3.34a2.46,2.46,0,0,0-4.91,0,19.09,19.09,0,0,1,2.4-.15A20.88,20.88,0,0,1,29,3.34Zm19.08,20.6H5a21.6,21.6,0,0,1,43.07,0Zm-24-18a22.36,22.36,0,0,0-15.68,16H13S15.47,10.78,24.06,5.93Z"/></g></g></svg>