<svg xmlns="http://www.w3.org/2000/svg" viewBox="0 0 38.75 40"><defs><style>.cls-1{fill:#fff;stroke:#fff;stroke-miterlimit:10;stroke-width:0.5px;}</style></defs><title>serviciotecnico</title><g id="Capa_2" data-name="Capa 2"><g id="Capa_1-2" data-name="Capa 1"><path class="cls-1" d="M37.2,28.19a7.36,7.36,0,0,0-8-3l-5.46-5.46-1.15,1.15,3.67,3.66a1.34,1.34,0,0,1-1.9,1.9L20.74,22.8,19.59,24l5,5a7.38,7.38,0,0,0,7.11,10.78l-3.34-4.86a1.46,1.46,0,0,1,.38-2l3.69-2.54a1.49,1.49,0,0,1,2,.38l3.33,4.86A7.32,7.32,0,0,0,37.2,28.19ZM14.05,12.89a1.35,1.35,0,0,1,.95.39l4.09,4.09,1.15-1.15-5.31-5.31A7.38,7.38,0,0,0,7.68.28L11.07,5.1a1.48,1.48,0,0,1-.36,2.05L7.05,9.72a1.47,1.47,0,0,1-2-.36L1.61,4.53a7.38,7.38,0,0,0,8.74,10.2L16,20.42l1.16-1.15-4.09-4.09a1.35,1.35,0,0,1,0-1.9A1.31,1.31,0,0,1,14.05,12.89Z"/><rect class="cls-1" x="15.1" y="20.56" width="1.59" height="7.11" rx="0.64" transform="translate(-12.4 18.3) rotate(-45)"/><path class="cls-1" d="M16.46,27.66l-9,9.84L6.33,38.71a3.47,3.47,0,0,1-1.18.78,3.18,3.18,0,0,1-1,.24l-.34,0a3.49,3.49,0,0,1-2.51-1,3.55,3.55,0,0,1,0-5l1.2-1.11,9.84-9Z"/><path class="cls-1" d="M35,6.63l-1.72,2.7L31.71,10,18.09,23.61,16.4,21.92,30,8.29l.65-1.52,2.7-1.71.14.14-2,1.67a1.14,1.14,0,0,0,.16,1.44c.36.36,1.12.57,1.48.21l1.63-2Z"/></g></g></svg>