<svg xmlns="http://www.w3.org/2000/svg" viewBox="0 0 30.25 41.27"><defs><style>.cls-1{fill:#fff;stroke:#fff;stroke-miterlimit:10;stroke-width:0.25px;}</style></defs><title>serviciosprofesionales_1</title><g id="Capa_2" data-name="Capa 2"><g id="Capa_1-2" data-name="Capa 1"><path class="cls-1" d="M29.47,41.14H.78a.65.65,0,0,1-.65-.65V22.07a.66.66,0,0,1,.65-.66H11v1.32H1.44v17.1H28.81V22.73H19.22V21.41H29.47a.67.67,0,0,1,.66.66V40.49A.66.66,0,0,1,29.47,41.14Z"/><path class="cls-1" d="M19.22,24.75H11a.65.65,0,0,1-.66-.66v-4a.65.65,0,0,1,.66-.66h8.19a.65.65,0,0,1,.66.66v4A.65.65,0,0,1,19.22,24.75Zm-7.54-1.31h6.89V20.7H11.68Z"/><rect class="cls-1" x="9.82" y="8.48" width="18.42" height="1.31" transform="translate(4.6 24.54) rotate(-72.53)"/><rect class="cls-1" x="12.76" y="9.41" width="18.42" height="1.31" transform="translate(5.78 28) rotate(-72.53)"/><rect class="cls-1" x="10.56" y="-0.07" width="1.31" height="18.42" transform="translate(-2.23 3.79) rotate(-17.47)"/><rect class="cls-1" x="7.62" y="0.86" width="1.31" height="18.42" transform="translate(-2.64 2.95) rotate(-17.47)"/><path class="cls-1" d="M6.93,33.14a2.81,2.81,0,0,1,0-5.62h0a2.81,2.81,0,0,1,0,5.62Zm0-4.31h0a1.5,1.5,0,0,0-1.48,1.51,1.49,1.49,0,0,0,3,0h0a1.49,1.49,0,0,0-1.49-1.49Z"/><path class="cls-1" d="M10.57,36.66H9.26V35.53A.24.24,0,0,0,9,35.29H4.84a.25.25,0,0,0-.25.24v1.13H3.28V35.53A1.56,1.56,0,0,1,4.84,34H9a1.55,1.55,0,0,1,1.55,1.55Z"/><rect class="cls-1" x="13.64" y="28.34" width="5.57" height="1.31"/><rect class="cls-1" x="13.64" y="32.44" width="11.1" height="1.31"/><rect class="cls-1" x="13.64" y="36.01" width="11.1" height="1.31"/></g></g></svg>