<svg xmlns="http://www.w3.org/2000/svg" viewBox="0 0 32.73 32.72"><defs><style>.cls-1{fill:#fff;stroke:#fff;stroke-miterlimit:10;stroke-width:0.5px;}</style></defs><title>serviciosfinancieros_1</title><g id="Capa_2" data-name="Capa 2"><g id="Capa_1-2" data-name="Capa 1"><path class="cls-1" d="M30.34,20a7.32,7.32,0,1,0,0,10.35,7.35,7.35,0,0,0,2.14-5.18A7.28,7.28,0,0,0,30.34,20Zm-.7,9.65a6.34,6.34,0,1,1,1.86-4.48A6.29,6.29,0,0,1,29.64,29.63Z"/><path class="cls-1" d="M25.15,21.12A4,4,0,0,0,22.31,28,4,4,0,0,0,28,28a4,4,0,0,0-2.85-6.87Zm2.16,6.19a3.05,3.05,0,1,1-2.16-5.22,3,3,0,0,1,2.16.9A3.06,3.06,0,0,1,27.31,27.31Z"/><path class="cls-1" d="M7.57,14.89a7.33,7.33,0,0,0,5.19-12.5,7.33,7.33,0,1,0-5.19,12.5ZM3.09,3.08a6.35,6.35,0,0,1,9,0,6.35,6.35,0,1,1-9,0Z"/><path class="cls-1" d="M7.57,11.6a4,4,0,0,0,2.85-1.18A4,4,0,1,0,7.57,11.6ZM5.42,5.41a3.08,3.08,0,0,1,4.31,0,3.05,3.05,0,1,1-4.31,0Z"/><path class="cls-1" d="M31.65,7.7a.49.49,0,0,0,.83-.35V.73A.49.49,0,0,0,32,.25H25.37a.49.49,0,0,0-.35.83l1.79,1.78L.89,28.79a2.13,2.13,0,0,0,0,3,2.11,2.11,0,0,0,1.52.64,2.15,2.15,0,0,0,1.53-.64L29.86,5.92ZM3.25,31.15a1.21,1.21,0,0,1-1.68,0,1.21,1.21,0,0,1,0-1.68L27.84,3.21A.51.51,0,0,0,28,2.86a.53.53,0,0,0-.15-.35L26.55,1.22H31.5v5L30.21,4.87a.49.49,0,0,0-.69,0Z"/></g></g></svg>