<svg xmlns="http://www.w3.org/2000/svg" viewBox="0 0 45.31 45.31"><defs><style>.cls-1{fill:#fff;stroke:#fff;stroke-miterlimit:10;stroke-width:0.25px;}</style></defs><title>todoautos_1</title><g id="Capa_2" data-name="Capa 2"><g id="Capa_1-2" data-name="Capa 1"><path class="cls-1" d="M22.66.13A22.53,22.53,0,1,0,45.19,22.66,22.55,22.55,0,0,0,22.66.13Zm0,43.45A20.93,20.93,0,1,1,43.58,22.66,20.95,20.95,0,0,1,22.66,43.58Z"/><path class="cls-1" d="M22.66,4.74A17.92,17.92,0,1,0,40.57,22.66,17.94,17.94,0,0,0,22.66,4.74Zm0,1.61A16.31,16.31,0,0,1,36.75,14.5C26,12,14.57,13.21,8.55,14.52A16.29,16.29,0,0,1,22.66,6.35Zm-15,10c5.58-1.42,18.43-3.11,30.1,0a16.74,16.74,0,0,1,.7,2.14,61.14,61.14,0,0,0-31.51,0A15.33,15.33,0,0,1,7.61,16.4Zm7.64,20.76A16.34,16.34,0,0,1,6.94,26.91a8,8,0,0,1,5.69,1.8C14.52,30.4,15.39,33.25,15.25,37.16Zm2.95,1.16c-.48-.13-.93-.29-1.38-.46.28-4.73-.75-8.23-3.11-10.35a9.66,9.66,0,0,0-7.12-2.19,14.18,14.18,0,0,1-.17-1.46c1.58-.06,5.81.08,8.75,3C17.64,29.3,18.64,33.17,18.2,38.32Zm4.46.64a16.15,16.15,0,0,1-2.88-.27c.54-5.77-.62-10.15-3.48-13-3.38-3.35-8.06-3.54-9.92-3.46a15.22,15.22,0,0,1,.16-1.93,59.2,59.2,0,0,1,32.24,0c.08.63.14,1.26.16,1.92-1.86-.08-6.55.11-9.93,3.46-2.86,2.83-4,7.21-3.47,13A16.15,16.15,0,0,1,22.66,39Zm7.41-1.8c-.15-3.87.71-6.71,2.57-8.41a8,8,0,0,1,5.73-1.84A16.29,16.29,0,0,1,30.07,37.16Zm8.65-11.84a9.66,9.66,0,0,0-7.17,2.24c-2.33,2.13-3.34,5.61-3.06,10.3-.45.17-.9.33-1.37.46-.45-5.15.55-9,3-11.46,2.93-2.91,7.17-3.06,8.77-3C38.86,24.35,38.8,24.84,38.72,25.32Z"/><path class="cls-1" d="M22.66,19.26a4.49,4.49,0,1,0,4.49,4.49A4.49,4.49,0,0,0,22.66,19.26Zm0,7.37a2.88,2.88,0,1,1,2.88-2.88A2.88,2.88,0,0,1,22.66,26.63Z"/></g></g></svg>