<svg xmlns="http://www.w3.org/2000/svg" viewBox="0 0 35.92 31.66"><defs><style>.cls-1{fill:none;stroke:#13bf9e;stroke-miterlimit:10;}</style></defs><title>vestuario</title><g id="Capa_2" data-name="Capa 2"><g id="Capa_1-2" data-name="Capa 1"><path class="cls-1" d="M19.24,3.91H16.68a.85.85,0,1,0,0,1.7h2.56a.85.85,0,0,0,0-1.7Z"/><path class="cls-1" d="M8.17,23.89l3.34-2.95L8.17,18Zm13-2.95L18,18.1l-3.23,2.84L18,23.78ZM18.67,26a1.09,1.09,0,0,1-.71.27,1,1,0,0,1-.7-.27l-4.14-3.64L8.17,26.72v3.59a.85.85,0,0,0,.85.85H26.91a.85.85,0,0,0,.85-.85V26.72l-5-4.36Zm9.09-2.11V18l-3.35,2.94ZM32.8,5,28.14,2.42a1.68,1.68,0,0,0-.82-.22h-3A2.13,2.13,0,0,0,22.22.5H13.7a2.12,2.12,0,0,0-2.08,1.7h-3a1.72,1.72,0,0,0-.83.22L3.13,5A5.11,5.11,0,0,0,.5,9.47V27.76a.85.85,0,0,0,.85.85H5.61a.85.85,0,0,0,.85-.85V15a.85.85,0,0,1,.85-.85.86.86,0,0,1,.86.85v.18l4.95,4.37,4.14-3.65a1.08,1.08,0,0,1,1.41,0l4.13,3.65,5-4.37V15a.85.85,0,0,1,1.7,0V27.76a.85.85,0,0,0,.85.85h4.26a.85.85,0,0,0,.85-.85V9.47A5.11,5.11,0,0,0,32.8,5Zm-11-1.52a3.84,3.84,0,0,1-7.67,0V3.06H21.8Z"/></g></g></svg>