<svg xmlns="http://www.w3.org/2000/svg" viewBox="0 0 41.55 28.21"><defs><style>.cls-1{fill:#13bf9e;}</style></defs><title>veterinarias</title><g id="Capa_2" data-name="Capa 2"><g id="Capa_1-2" data-name="Capa 1"><path class="cls-1" d="M34.47,10.16a3.16,3.16,0,0,0,.42-2.8C33.7,2.16,30.1.28,28,.28H23.45A3.66,3.66,0,0,0,19.62,3.6H13.85a.55.55,0,0,0-.54.45c0,.11-.53,2.8.82,4.44A3.53,3.53,0,0,0,17,9.7c.17,0,2.37.09,4.07.09a1.14,1.14,0,0,1,1.11,1h1.11a2.24,2.24,0,0,0-2.22-2.12c-1.74,0-4-.09-4-.09h0a2.41,2.41,0,0,1-2-.8,2.9,2.9,0,0,1-.56-1.22,3.47,3.47,0,0,0,2.2-.71,2.1,2.1,0,0,0,.67-1.15h2.83a.55.55,0,0,0,.55-.55,2.68,2.68,0,0,1,2.77-2.77H28c1.7,0,4.79,1.68,5.83,6.21a2.16,2.16,0,0,1-.21,1.87,3.24,3.24,0,0,1-2.58.78c-2.69,0-2.77-6-2.77-6.1h-1.1c0,.29,0,7.2,3.87,7.2A6.16,6.16,0,0,0,33.3,11c2.36,3.37,7.14,10.69,7.14,13.1h1.11c0-3-5.48-11.09-7.31-13.69A2.73,2.73,0,0,0,34.47,10.16ZM15.9,5a2.58,2.58,0,0,1-1.59.43,5.56,5.56,0,0,1,0-.75h1.8A.93.93,0,0,1,15.9,5Z"/><path class="cls-1" d="M25.22,11.41l-.66-.12v3.44H23.45a3.75,3.75,0,0,0-3.85,3.32H18.38l-.07,0c-.06,0-1.46.46-1.46,2.79a3.25,3.25,0,0,0,3.28,3.28h.33a2,2,0,0,1,1.59.38c.56.55.85,1.79.85,3.69H24c0-2.27-.38-3.7-1.19-4.49A3,3,0,0,0,20.43,23h-.3A2.13,2.13,0,0,1,18,20.87c0-1.22.46-1.61.63-1.71h2.09v-.55a2.66,2.66,0,0,1,2.77-2.77h2.22V12.76a7,7,0,0,1,2.4,2.14c1.43,1.94,3.14,5.83,3.14,13.31h1.11C32.32,13,25.51,11.47,25.22,11.41Z"/><path class="cls-1" d="M21.49,18V19a.56.56,0,1,0,1.11,0V18a.56.56,0,1,0-1.11,0Z"/><path class="cls-1" d="M21.49,3.21v1a.56.56,0,0,0,1.11,0v-1a.56.56,0,1,0-1.11,0Z"/><polygon class="cls-1" points="19.34 14.77 14.77 14.77 14.77 22.16 8.49 22.16 8.49 14.77 1.11 14.77 1.11 8.49 8.49 8.49 8.49 1.11 14.77 1.11 14.77 2.45 15.88 2.45 15.88 0 7.39 0 7.39 7.39 0 7.39 0 15.88 7.39 15.88 7.39 23.27 15.88 23.27 15.88 15.88 19.34 15.88 19.34 14.77"/></g></g></svg>