<svg xmlns="http://www.w3.org/2000/svg" viewBox="0 0 156.37 156.38"><defs><style>.cls-1{fill:#fefefe;}.cls-2{fill:#13bf9e;}.cls-3{font-size:24.7px;fill:#fff;font-family:Poppins-Bold, Poppins;font-weight:700;}</style></defs><title>Recurso 1</title><g id="Capa_2" data-name="Capa 2"><g id="Capa_1-2" data-name="Capa 1"><path class="cls-1" d="M156.34,128.93c0,8.78,0,17.57,0,26.35,0,.91-.18,1.1-1.09,1.1q-77.1,0-154.19,0c-.91,0-1.09-.19-1.09-1.1Q0,78.19,0,1.1C0,.19.18,0,1.09,0q77.1,0,154.19,0c1.12,0,1.08.43,1.08,1.25q0,38.55,0,77.09c-.85-.11-.9-.87-1.12-1.45-2.18-5.63-6.2-8.5-12.31-8.72-.55,0-1.11,0-1.67,0H15.43c-1,0-2,0-3,.13C6,68.74.76,74,.8,81.41c0,6,0,12.09,0,18.13,0,8.78,0,17.56,0,26.35,0,6.27,3.55,11,9.27,12.62a19,19,0,0,0,5,.6H141.48c4.85,0,9.13-1.3,12.11-5.47a14.2,14.2,0,0,0,1.63-3.26C155.44,129.8,155.49,129,156.34,128.93Z"/><path class="cls-2" d="M156.34,128.93c-.86,1.68-1.26,3.57-2.42,5.13-2.89,3.84-6.79,5.44-11.48,5.44H14.31a15,15,0,0,1-4.22-.47c-6-1.72-9.71-6.38-9.74-12.6q-.09-22.77,0-45.55c0-7.69,5.72-13.12,13.58-13.15,8.58,0,17.16,0,25.74,0q51.35,0,102.69,0c5.72,0,10.08,2.28,12.75,7.48.52,1,.51,2.22,1.23,3.15Z"/><path class="cls-2" d="M122.78,63.46c-3.62,0-6.76,0-9.9,0-.81,0-1.16-.55-1.61-1Q96.51,47.74,81.77,33c-.75-.76-1.44-1.39-2.58-.95a.51.51,0,0,1-.3,0c-2.52-.76-3.92.83-5.48,2.4-9.29,9.38-18.65,18.68-28,28a3,3,0,0,1-2.37,1c-2.89-.07-5.79,0-8.78,0,.14-.66.66-.93,1-1.29Q52.47,45,69.67,27.82a3,3,0,0,0,1-2.74,7.59,7.59,0,0,1,6.17-8.31,7.68,7.68,0,0,1,8.9,5.57A5.42,5.42,0,0,1,86,25a2.83,2.83,0,0,0,1.11,2.87Q104.24,45,121.35,62.14C121.7,62.49,122.08,62.82,122.78,63.46Z"/><text class="cls-3" transform="translate(28.33 110.79)">ABIERTO</text></g></g></svg>