<svg xmlns="http://www.w3.org/2000/svg" xmlns:xlink="http://www.w3.org/1999/xlink" viewBox="0 0 1572.03 711.99"><defs><style>.cls-1{fill:url(#Degradado_sin_nombre_16);}.cls-2{font-size:223.24px;fill:#0245a3;font-family:Poppins-Black, Poppins;font-weight:800;}</style><linearGradient id="Degradado_sin_nombre_16" x1="786.01" y1="-41.04" x2="786.01" y2="373.23" gradientUnits="userSpaceOnUse"><stop offset="0" stop-color="#8fbaf3"/><stop offset="1" stop-color="#0245a3"/></linearGradient></defs><g id="Capa_2" data-name="Capa 2"><g id="Layer_1" data-name="Layer 1"><path class="cls-1" d="M950.05,0H867.32L817.68,94.44a10.18,10.18,0,0,0,9,14.92h65.45a10.18,10.18,0,0,1,7.47,17.09l-34.35,37.17-91,98.5-39.7,42.95,22.58-42.95L801,178.53a10.17,10.17,0,0,0-9-14.91h-67.3a10.18,10.18,0,0,1-9-14.92l20.68-39.34L793.86,0H622a41.74,41.74,0,0,0-41.74,41.74V220.38A41.74,41.74,0,0,0,622,262.12h77.64V368.54l2.48-1.82,143.52-104.6H950.05a41.74,41.74,0,0,0,41.74-41.74V41.74A41.74,41.74,0,0,0,950.05,0Z"/><text class="cls-2" transform="translate(0 572.02)">BINTERACION</text></g></g></svg>