<svg xmlns="http://www.w3.org/2000/svg" viewBox="0 0 38.06 38.06"><defs><style>.cls-1{fill:#fff;}</style></defs><title>google</title><g id="Capa_2" data-name="Capa 2"><g id="Capa_1-2" data-name="Capa 1"><path class="cls-1" d="M19,0A19,19,0,0,0,0,19H0a19,19,0,0,0,38.06,0h0A19,19,0,0,0,19,0ZM13.87,27.3a8.27,8.27,0,1,1,5.8-14.16L18,14.61a6,6,0,1,0-4.1,10.45,5.08,5.08,0,0,0,5-4.32H13.73V18.53h7.69v.86C21.42,24,18.25,27.3,13.87,27.3Zm18.59-6.65H29.29v3.17h-2V20.65H24.09v-2h3.17V15.45h2v3.18h3.17Z"/></g></g></svg>