<svg xmlns="http://www.w3.org/2000/svg" viewBox="0 0 48.62 47.07"><defs><style>.cls-1{fill:#e6e6e6;}</style></defs><title>Recurso 1</title><g id="Capa_2" data-name="Capa 2"><g id="Layer_1" data-name="Layer 1"><path class="cls-1" d="M48,23a2.32,2.32,0,0,0-.19-3.32L26.09.64a2.69,2.69,0,0,0-3.53,0l-21.8,20A2.31,2.31,0,0,0,.65,24l.55.56a2.38,2.38,0,0,0,3.27.26L6.1,23.34V44.7a2.37,2.37,0,0,0,2.37,2.37H17a2.37,2.37,0,0,0,2.37-2.37v-15H30.18v15a2.24,2.24,0,0,0,2.23,2.37h9a2.37,2.37,0,0,0,2.37-2.37V23.64l1,.88c.55.49,1.71.1,2.59-.87Z"/></g></g></svg>