<svg xmlns="http://www.w3.org/2000/svg" viewBox="0 0 24.06 40.45"><defs><style>.cls-1{fill:#fff;fill-rule:evenodd;}</style></defs><title>left</title><g id="Capa_2" data-name="Capa 2"><g id="_4" data-name="4"><path class="cls-1" d="M17.45,1.27,1.06,17.66a3.63,3.63,0,0,0,0,5.12L17.45,39.17c1.48,1.48,3.52,1.79,5,.31l.61-.62c1.17-1.29,1.42-2.83.18-4-4.06-4-8.06-8.08-12.13-12.08a3.61,3.61,0,0,1,0-5.12c4.07-4.06,8.07-8.07,12.13-12.07,1.24-1.17,1-2.71-.18-4.07L22.45,1c-1.48-1.48-3.52-1.17-5,.3Z"/></g></g></svg>