<?xml version="1.0" encoding="utf-8"?>
<!-- Generator: Adobe Illustrator 23.0.5, SVG Export Plug-In . SVG Version: 6.00 Build 0)  -->
<svg version="1.1" id="Capa_1" xmlns="http://www.w3.org/2000/svg" xmlns:xlink="http://www.w3.org/1999/xlink" x="0px" y="0px"
	 viewBox="0 0 1023 1023" style="enable-background:new 0 0 1023 1023;" xml:space="preserve">
<style type="text/css">
	.st0{fill:#13BF9E;}
	.st1{fill:#FFFFFF;}
</style>
<title>logo-t</title>
<g>
	<rect class="st0" width="1023" height="1023"/>
	<g>
		<g id="Capa_1-2_1_">
			<path class="st1" d="M178.4,685.2l-12.3-339h62.4l4.4,256.9l105.9-256.9h60.8l-146.3,339H178.4z"/>
			<path class="st1" d="M339.8,685.2l146-339H569l7.2,338.9h-61.6v-72.5h-85l-30.9,72.5H339.8z M449.1,567.5l64.2-3.3V414
				L449.1,567.5z"/>
			<path class="st1" d="M703.5,689.7c-16.8,0.5-33.6-2-49.5-7.4c-11.9-4-22.1-11.9-29.1-22.3c-6.5-10.5-10.2-22.5-10.7-34.9
				c-0.5-7.6-0.3-15.1,0.6-22.7c0.9-8.3,2.3-16.5,4.2-24.6l27.7-125.3c8-36.7,22.5-64.3,43.4-82.8c20.9-18.5,50.9-27.8,90-27.8
				c16.9-0.5,33.7,2,49.7,7.4c11.9,4,22.2,11.6,29.4,21.9c6.4,10.5,10,22.5,10.7,34.7c0.5,7.6,0.3,15.2-0.4,22.7
				c-0.9,8.1-2.3,16-4.2,23.9l-27.7,125.3c-8,36.4-22.6,64.2-43.8,83.3C772.6,680.3,742.5,689.8,703.5,689.7z M714.2,640.6
				c6.4,0.1,12.8-1.1,18.7-3.6c5.1-2.3,9.5-6,12.6-10.6c3.1-4.5,5.7-9.3,7.5-14.4c2.1-5.9,3.8-11.9,5.2-18l34.7-157.6
				c1.1-5.6,1.8-10.8,2.3-15.8c0-2.4,0.3-4.8,0.5-7.1c0.7-6.1-1.5-12.2-5.9-16.4c-4.4-4.2-11.3-6.3-20.7-6.2
				c-6.3-0.2-12.6,1-18.5,3.4c-5.1,2.1-9.5,5.7-12.6,10.3c-3,4.4-5.5,9.1-7.4,14.1c-2.1,5.8-3.8,11.8-5.1,17.8l-34.7,157.6
				c-1.2,6.1-2.1,11.9-2.7,17.2c0,2.2-0.4,4.2-0.4,6.1c-0.7,6.2,1.4,12.3,5.8,16.8C698,638.4,704.9,640.6,714.2,640.6z"/>
		</g>
	</g>
</g>
<title>logo-t</title>
<g>
	<rect x="-1242.5" y="1307.3" class="st0" width="2732" height="2732"/>
	<g>
		<g id="Capa_1-2_2_">
			<path class="st1" d="M-220.6,2852.5l-12.7-349.9h64.5l4.6,265.2l109.4-265.2H7.8l-151,349.9H-220.6z"/>
			<path class="st1" d="M-54,2852.5l150.7-349.9h86l7.4,349.9h-63.6v-74.8H38.7l-31.9,74.9H-54z M58.9,2731l66.3-3.4v-155L58.9,2731
				z"/>
			<path class="st1" d="M321.5,2857.2c-17.4,0.5-34.7-2.1-51.1-7.7c-12.3-4.2-22.8-12.2-30-23c-6.7-10.8-10.5-23.2-11.1-36
				c-0.5-7.8-0.3-15.6,0.6-23.4c1-8.5,2.4-17,4.3-25.4l28.6-129.3c8.3-37.9,23.2-66.3,44.8-85.5c21.6-19.1,52.6-28.7,92.9-28.7
				c17.4-0.5,34.8,2.1,51.3,7.6c12.3,4.1,22.9,12,30.4,22.6c6.6,10.9,10.4,23.2,11.1,35.9c0.5,7.8,0.3,15.6-0.4,23.4
				c-0.9,8.3-2.4,16.6-4.3,24.7L460,2741.7c-8.2,37.6-23.3,66.3-45.2,86C392.8,2847.4,361.7,2857.2,321.5,2857.2z M332.6,2806.5
				c6.6,0.1,13.2-1.1,19.3-3.7c5.3-2.4,9.8-6.2,13-11c3.2-4.6,5.8-9.6,7.8-14.9c2.2-6.1,3.9-12.3,5.3-18.6l35.8-162.7
				c1.1-5.8,1.9-11.2,2.4-16.3c0-2.5,0.3-5,0.6-7.4c0.7-6.3-1.5-12.6-6.1-17c-4.5-4.3-11.6-6.5-21.4-6.4c-6.5-0.2-13,1-19.1,3.5
				c-5.3,2.2-9.8,5.9-13,10.6c-3.1,4.5-5.7,9.4-7.6,14.6c-2.2,6-3.9,12.1-5.3,18.4l-35.8,162.7c-1.3,6.3-2.2,12.2-2.8,17.8
				c0,2.3-0.4,4.3-0.4,6.3c-0.7,6.4,1.5,12.7,5.9,17.4C315.8,2804.2,322.9,2806.5,332.6,2806.5z"/>
		</g>
	</g>
</g>
</svg>
