<svg xmlns="http://www.w3.org/2000/svg" viewBox="0 0 43.89 47.1"><defs><style>.cls-1{fill:#13bf9e;}</style></defs><title>message-g</title><g id="Capa_2" data-name="Capa 2"><g id="Layer_1" data-name="Layer 1"><g id="talk-bubble-tirh-text"><path class="cls-1" d="M43.89,21.94a21.93,21.93,0,1,0-11.5,19.31c3.46,2,10,5.85,10,5.85L39.78,34.72A21.87,21.87,0,0,0,43.89,21.94ZM32.66,31H11.81a2,2,0,1,1,0-4H32.66a2,2,0,1,1,0,4Zm0-7.31H11.81a2,2,0,1,1,0-4H32.66a2,2,0,0,1,0,4Zm0-7.31H11.81a2,2,0,0,1,0-4H32.66a2,2,0,1,1,0,4Z"/></g></g></g></svg>