<svg xmlns="http://www.w3.org/2000/svg" xmlns:xlink="http://www.w3.org/1999/xlink" viewBox="0 0 77.1 55.71"><defs><style>.cls-1{fill:#e3e7e7;}.cls-2{fill:url(#linear-gradient);}.cls-3{fill:url(#linear-gradient-2);}.cls-4{fill:url(#linear-gradient-3);}.cls-5{fill:url(#linear-gradient-4);}.cls-6{fill:url(#linear-gradient-5);}.cls-7{fill:url(#linear-gradient-6);}.cls-8{fill:#ffe266;}.cls-9{fill:#13bf9e;}.cls-10{fill:#fff;}.cls-11{fill:#3c3c3b;}.cls-12{opacity:0.6;}.cls-13{fill:#333;}</style><linearGradient id="linear-gradient" x1="19.46" y1="32.6" x2="19.46" y2="50.78" gradientUnits="userSpaceOnUse"><stop offset="0" stop-color="#13bf9e"/><stop offset="1" stop-color="#fff"/></linearGradient><linearGradient id="linear-gradient-2" x1="30.05" y1="28.64" x2="30.05" y2="48.72" xlink:href="#linear-gradient"/><linearGradient id="linear-gradient-3" x1="40.65" y1="18.53" x2="40.65" y2="49.31" xlink:href="#linear-gradient"/><linearGradient id="linear-gradient-4" x1="51.24" y1="18.53" x2="51.24" y2="49.31" xlink:href="#linear-gradient"/><linearGradient id="linear-gradient-5" x1="61.84" y1="18.53" x2="61.84" y2="49.31" xlink:href="#linear-gradient"/><linearGradient id="linear-gradient-6" x1="72.43" y1="18.53" x2="72.43" y2="49.31" xlink:href="#linear-gradient"/></defs><title>statics</title><g id="Capa_2" data-name="Capa 2"><g id="layer_1" data-name="layer 1"><path class="cls-1" d="M73.59,4.24H72.9V3.55h.69Zm-2.06,0h-.69V3.55h.69Zm-2.06,0h-.69V3.55h.69Zm-2.06,0h-.69V3.55h.69Zm-2.06,0h-.69V3.55h.69Zm-2.06,0H62.6V3.55h.69Zm-2.07,0h-.68V3.55h.68Zm-2.06,0h-.68V3.55h.68Zm-2.06,0h-.69V3.55h.69ZM55,4.24h-.69V3.55H55ZM53,4.24h-.69V3.55H53Zm-2.06,0h-.69V3.55h.69Zm-2.06,0h-.69V3.55h.69Zm-2.06,0h-.69V3.55h.69Zm-2.07,0h-.68V3.55h.68Zm-2.06,0H42V3.55h.68Zm-2.06,0h-.69V3.55h.69Zm-2.06,0h-.69V3.55h.69Zm-2.06,0H35.8V3.55h.69Zm-2.06,0h-.69V3.55h.69Zm-2.06,0h-.69V3.55h.69Zm-2.06,0h-.69V3.55h.69Zm-2.06,0h-.69V3.55h.69Zm-2.07,0H25.5V3.55h.68Zm-2.06,0h-.69V3.55h.69Zm-2.06,0h-.69V3.55h.69ZM20,4.24h-.69V3.55H20Zm-2.06,0h-.69V3.55h.69Zm-2.06,0h-.69V3.55h.69Zm-2.06,0h-.69V3.55h.69Zm-2.07,0h-.68V3.55h.68Z"/><path class="cls-1" d="M73.59,15.28H72.9V14.6h.69Zm-2.06,0h-.69V14.6h.69Zm-2.06,0h-.69V14.6h.69Zm-2.06,0h-.69V14.6h.69Zm-2.06,0h-.69V14.6h.69Zm-2.06,0H62.6V14.6h.69Zm-2.07,0h-.68V14.6h.68Zm-2.06,0h-.68V14.6h.68Zm-2.06,0h-.69V14.6h.69Zm-2.06,0h-.69V14.6H55Zm-2.06,0h-.69V14.6H53Zm-2.06,0h-.69V14.6h.69Zm-2.06,0h-.69V14.6h.69Zm-2.06,0h-.69V14.6h.69Zm-2.07,0h-.68V14.6h.68Zm-2.06,0H42V14.6h.68Zm-2.06,0h-.69V14.6h.69Zm-2.06,0h-.69V14.6h.69Zm-2.06,0H35.8V14.6h.69Zm-2.06,0h-.69V14.6h.69Zm-2.06,0h-.69V14.6h.69Zm-2.06,0h-.69V14.6h.69Zm-2.06,0h-.69V14.6h.69Zm-2.07,0H25.5V14.6h.68Zm-2.06,0h-.69V14.6h.69Zm-2.06,0h-.69V14.6h.69Zm-2.06,0h-.69V14.6H20Zm-2.06,0h-.69V14.6h.69Zm-2.06,0h-.69V14.6h.69Zm-2.06,0h-.69V14.6h.69Zm-2.07,0h-.68V14.6h.68Z"/><path class="cls-1" d="M73.59,26.33H72.9v-.69h.69Zm-2.06,0h-.69v-.69h.69Zm-2.06,0h-.69v-.69h.69Zm-2.06,0h-.69v-.69h.69Zm-2.06,0h-.69v-.69h.69Zm-2.06,0H62.6v-.69h.69Zm-2.07,0h-.68v-.69h.68Zm-2.06,0h-.68v-.69h.68Zm-2.06,0h-.69v-.69h.69Zm-2.06,0h-.69v-.69H55Zm-2.06,0h-.69v-.69H53Zm-2.06,0h-.69v-.69h.69Zm-2.06,0h-.69v-.69h.69Zm-2.06,0h-.69v-.69h.69Zm-2.07,0h-.68v-.69h.68Zm-2.06,0H42v-.69h.68Zm-2.06,0h-.69v-.69h.69Zm-2.06,0h-.69v-.69h.69Zm-2.06,0H35.8v-.69h.69Zm-2.06,0h-.69v-.69h.69Zm-2.06,0h-.69v-.69h.69Zm-2.06,0h-.69v-.69h.69Zm-2.06,0h-.69v-.69h.69Zm-2.07,0H25.5v-.69h.68Zm-2.06,0h-.69v-.69h.69Zm-2.06,0h-.69v-.69h.69Zm-2.06,0h-.69v-.69H20Zm-2.06,0h-.69v-.69h.69Zm-2.06,0h-.69v-.69h.69Zm-2.06,0h-.69v-.69h.69Zm-2.07,0h-.68v-.69h.68Z"/><path class="cls-1" d="M73.59,37.38H72.9v-.69h.69Zm-2.06,0h-.69v-.69h.69Zm-2.06,0h-.69v-.69h.69Zm-2.06,0h-.69v-.69h.69Zm-2.06,0h-.69v-.69h.69Zm-2.06,0H62.6v-.69h.69Zm-2.07,0h-.68v-.69h.68Zm-2.06,0h-.68v-.69h.68Zm-2.06,0h-.69v-.69h.69Zm-2.06,0h-.69v-.69H55Zm-2.06,0h-.69v-.69H53Zm-2.06,0h-.69v-.69h.69Zm-2.06,0h-.69v-.69h.69Zm-2.06,0h-.69v-.69h.69Zm-2.07,0h-.68v-.69h.68Zm-2.06,0H42v-.69h.68Zm-2.06,0h-.69v-.69h.69Zm-2.06,0h-.69v-.69h.69Zm-2.06,0H35.8v-.69h.69Zm-2.06,0h-.69v-.69h.69Zm-2.06,0h-.69v-.69h.69Zm-2.06,0h-.69v-.69h.69Zm-2.06,0h-.69v-.69h.69Zm-2.07,0H25.5v-.69h.68Zm-2.06,0h-.69v-.69h.69Zm-2.06,0h-.69v-.69h.69Zm-2.06,0h-.69v-.69H20Zm-2.06,0h-.69v-.69h.69Zm-2.06,0h-.69v-.69h.69Zm-2.06,0h-.69v-.69h.69Zm-2.07,0h-.68v-.69h.68Z"/><path class="cls-1" d="M73.59,48.42H72.9v-.69h.69Zm-2.06,0h-.69v-.69h.69Zm-2.06,0h-.69v-.69h.69Zm-2.06,0h-.69v-.69h.69Zm-2.06,0h-.69v-.69h.69Zm-2.06,0H62.6v-.69h.69Zm-2.07,0h-.68v-.69h.68Zm-2.06,0h-.68v-.69h.68Zm-2.06,0h-.69v-.69h.69Zm-2.06,0h-.69v-.69H55Zm-2.06,0h-.69v-.69H53Zm-2.06,0h-.69v-.69h.69Zm-2.06,0h-.69v-.69h.69Zm-2.06,0h-.69v-.69h.69Zm-2.07,0h-.68v-.69h.68Zm-2.06,0H42v-.69h.68Zm-2.06,0h-.69v-.69h.69Zm-2.06,0h-.69v-.69h.69Zm-2.06,0H35.8v-.69h.69Zm-2.06,0h-.69v-.69h.69Zm-2.06,0h-.69v-.69h.69Zm-2.06,0h-.69v-.69h.69Zm-2.06,0h-.69v-.69h.69Zm-2.07,0H25.5v-.69h.68Zm-2.06,0h-.69v-.69h.69Zm-2.06,0h-.69v-.69h.69Zm-2.06,0h-.69v-.69H20Zm-2.06,0h-.69v-.69h.69Zm-2.06,0h-.69v-.69h.69Zm-2.06,0h-.69v-.69h.69Zm-2.07,0h-.68v-.69h.68Z"/><rect class="cls-2" x="16.05" y="42.84" width="6.8" height="5.34"/><rect class="cls-3" x="26.65" y="37.12" width="6.8" height="11.06"/><rect class="cls-4" x="37.25" y="28.69" width="6.8" height="19.5"/><rect class="cls-5" x="47.84" y="20.06" width="6.8" height="28.12"/><rect class="cls-6" x="58.44" y="12.81" width="6.8" height="35.38"/><rect class="cls-7" x="69.03" y="8.14" width="6.8" height="40.04"/><rect class="cls-1" x="10.72" y="3.75" width="0.69" height="44.32"/><path class="cls-8" d="M75.6,8H72.34l-7.2,4.41H58.22l-3.79,7.54H47.68L41,28.12l-4,8L30,37,19.4,42.69,11.13,41.2l-.12.68,8.5,1.52,10.65-5.74,7.31-.94,4.07-8.2L48,20.61h6.85l3.8-7.55h6.68l7.2-4.4H75.3Q75.47,8.32,75.6,8Z"/><path class="cls-9" d="M20.92,43a1.47,1.47,0,1,0-1.47,1.46A1.47,1.47,0,0,0,20.92,43Z"/><path class="cls-10" d="M20.12,43a.67.67,0,1,0-.67.67A.67.67,0,0,0,20.12,43Z"/><path class="cls-9" d="M31.51,37.79a1.46,1.46,0,1,0-1.46,1.46A1.46,1.46,0,0,0,31.51,37.79Z"/><path class="cls-10" d="M30.72,37.79a.67.67,0,0,0-.67-.67.67.67,0,1,0,.67.67Z"/><path class="cls-9" d="M38.07,36.58a1.46,1.46,0,1,0-1.46,1.47A1.47,1.47,0,0,0,38.07,36.58Z"/><path class="cls-10" d="M37.27,36.58a.67.67,0,1,0-.66.67A.67.67,0,0,0,37.27,36.58Z"/><path class="cls-9" d="M42.75,28.53A1.46,1.46,0,1,0,41.29,30,1.46,1.46,0,0,0,42.75,28.53Z"/><path class="cls-10" d="M42,28.53a.66.66,0,1,0-.66.66A.66.66,0,0,0,42,28.53Z"/><path class="cls-9" d="M49.3,19.9a1.46,1.46,0,1,0-1.46,1.46A1.46,1.46,0,0,0,49.3,19.9Z"/><path class="cls-10" d="M48.51,19.9a.67.67,0,0,0-.67-.67.67.67,0,1,0,.67.67Z"/><path class="cls-9" d="M56.1,19.9a1.46,1.46,0,1,0-1.46,1.46A1.46,1.46,0,0,0,56.1,19.9Z"/><path class="cls-10" d="M55.31,19.9a.67.67,0,1,0-.67.66A.67.67,0,0,0,55.31,19.9Z"/><path class="cls-9" d="M59.9,12.72a1.46,1.46,0,1,0-1.46,1.46A1.46,1.46,0,0,0,59.9,12.72Z"/><path class="cls-10" d="M59.1,12.72a.67.67,0,1,0-.66.66A.66.66,0,0,0,59.1,12.72Z"/><path class="cls-9" d="M66.93,12.92a1.46,1.46,0,1,0-1.46,1.46A1.46,1.46,0,0,0,66.93,12.92Z"/><path class="cls-10" d="M66.13,12.92a.67.67,0,1,0-.66.66A.66.66,0,0,0,66.13,12.92Z"/><path class="cls-9" d="M77.1,8.31a1.46,1.46,0,1,0-1.46,1.46A1.46,1.46,0,0,0,77.1,8.31Z"/><path class="cls-10" d="M76.31,8.31a.67.67,0,1,0-.67.67A.67.67,0,0,0,76.31,8.31Z"/><path class="cls-11" d="M1.09,3H.72V.65A1.36,1.36,0,0,1,.38.9,1.91,1.91,0,0,1,0,1.09V.74A2,2,0,0,0,.53.39,1.22,1.22,0,0,0,.85,0h.24Z"/><path class="cls-11" d="M2,1.51A2.71,2.71,0,0,1,2.09.67a1.06,1.06,0,0,1,.32-.5A.85.85,0,0,1,3,0a.78.78,0,0,1,.41.1.77.77,0,0,1,.3.27,1.35,1.35,0,0,1,.18.44,2.6,2.6,0,0,1,.07.7,2.8,2.8,0,0,1-.11.84,1,1,0,0,1-.32.49A.79.79,0,0,1,3,3a.81.81,0,0,1-.67-.3A1.92,1.92,0,0,1,2,1.51Zm.38,0a1.76,1.76,0,0,0,.17,1A.49.49,0,0,0,3,2.71a.52.52,0,0,0,.42-.24,1.86,1.86,0,0,0,.17-1,1.88,1.88,0,0,0-.17-1A.52.52,0,0,0,2.94.3a.48.48,0,0,0-.4.21A1.94,1.94,0,0,0,2.36,1.51Z"/><path class="cls-11" d="M4.45,1.51A2.71,2.71,0,0,1,4.56.67a1.06,1.06,0,0,1,.32-.5A.85.85,0,0,1,5.42,0a.78.78,0,0,1,.41.1.77.77,0,0,1,.3.27,1.35,1.35,0,0,1,.18.44,2.6,2.6,0,0,1,.07.7,2.8,2.8,0,0,1-.11.84A1.08,1.08,0,0,1,6,2.84.79.79,0,0,1,5.42,3a.81.81,0,0,1-.67-.3A1.92,1.92,0,0,1,4.45,1.51Zm.38,0a1.76,1.76,0,0,0,.17,1,.49.49,0,0,0,.42.24.52.52,0,0,0,.42-.24,1.86,1.86,0,0,0,.17-1,1.88,1.88,0,0,0-.17-1A.52.52,0,0,0,5.41.3.48.48,0,0,0,5,.51,1.94,1.94,0,0,0,4.83,1.51Z"/><path class="cls-11" d="M2.19,11.44V11.1H4.1v.28a3.74,3.74,0,0,0-.56.79,4.79,4.79,0,0,0-.43,1A3.79,3.79,0,0,0,3,14H2.6a3.32,3.32,0,0,1,.14-.84,4.53,4.53,0,0,1,.89-1.73Z"/><path class="cls-11" d="M4.45,13.24l.39,0a.64.64,0,0,0,.19.42.55.55,0,0,0,.37.14.56.56,0,0,0,.45-.2A.73.73,0,0,0,6,13a.66.66,0,0,0-.18-.49.6.6,0,0,0-.45-.18.69.69,0,0,0-.32.08.56.56,0,0,0-.22.21l-.34-.05.29-1.51H6.27v.34H5.1l-.16.8a.92.92,0,0,1,1.21.08,1,1,0,0,1,.26.69,1.08,1.08,0,0,1-.23.69.94.94,0,0,1-.78.36.94.94,0,0,1-.65-.23A.91.91,0,0,1,4.45,13.24Z"/><path class="cls-11" d="M2,24.28l.38,0a.69.69,0,0,0,.2.42.53.53,0,0,0,.37.14.59.59,0,0,0,.44-.2.75.75,0,0,0,.18-.52.69.69,0,0,0-.17-.49A.62.62,0,0,0,3,23.42a.53.53,0,0,0-.31.08.64.64,0,0,0-.23.2l-.34,0,.29-1.52H3.85v.35H2.67l-.16.79a1,1,0,0,1,.56-.18.88.88,0,0,1,.65.27.9.9,0,0,1,.27.68,1.08,1.08,0,0,1-.24.7.92.92,0,0,1-.77.36,1,1,0,0,1-.66-.23A.86.86,0,0,1,2,24.28Z"/><path class="cls-11" d="M4.45,23.6a2.71,2.71,0,0,1,.11-.84,1.06,1.06,0,0,1,.32-.5.85.85,0,0,1,.54-.17.84.84,0,0,1,.71.37,1.35,1.35,0,0,1,.18.44,2.65,2.65,0,0,1,.07.7,2.76,2.76,0,0,1-.11.84,1,1,0,0,1-.32.49.79.79,0,0,1-.53.18.81.81,0,0,1-.67-.31A1.92,1.92,0,0,1,4.45,23.6Zm.38,0a1.81,1.81,0,0,0,.17,1,.49.49,0,0,0,.42.24.52.52,0,0,0,.42-.24,1.94,1.94,0,0,0,.17-1,1.88,1.88,0,0,0-.17-1,.52.52,0,0,0-.43-.24.48.48,0,0,0-.4.21A2,2,0,0,0,4.83,23.6Z"/><path class="cls-11" d="M4,35.75v.35H2.05a.69.69,0,0,1,0-.25,1.37,1.37,0,0,1,.24-.39A4.19,4.19,0,0,1,2.8,35a4,4,0,0,0,.65-.62A.72.72,0,0,0,3.62,34a.49.49,0,0,0-.15-.36.55.55,0,0,0-.4-.15.54.54,0,0,0-.42.16.54.54,0,0,0-.16.43l-.37,0a.89.89,0,0,1,.28-.63,1,1,0,0,1,.68-.22,1,1,0,0,1,.67.23A.82.82,0,0,1,4,34a.89.89,0,0,1-.08.35,1.6,1.6,0,0,1-.24.36,6.56,6.56,0,0,1-.56.52l-.42.37a1.25,1.25,0,0,0-.15.19Z"/><path class="cls-11" d="M4.45,35.33l.39,0a.63.63,0,0,0,.19.41.5.5,0,0,0,.37.14.58.58,0,0,0,.45-.19A.76.76,0,0,0,6,35.13a.67.67,0,0,0-.18-.49.6.6,0,0,0-.45-.18.69.69,0,0,0-.32.08.74.74,0,0,0-.22.21l-.34,0,.29-1.52H6.27v.35H5.1l-.16.79a1,1,0,0,1,.55-.18.89.89,0,0,1,.66.26,1,1,0,0,1,.26.69,1.08,1.08,0,0,1-.23.69.94.94,0,0,1-.78.36.93.93,0,0,1-.65-.22A.91.91,0,0,1,4.45,35.33Z"/><path class="cls-11" d="M4.46,45.69a2.75,2.75,0,0,1,.1-.84,1.1,1.1,0,0,1,.32-.49.8.8,0,0,1,.54-.18.86.86,0,0,1,.41.1.77.77,0,0,1,.3.27,1.35,1.35,0,0,1,.18.44,3.38,3.38,0,0,1,0,1.54A1,1,0,0,1,6,47a.79.79,0,0,1-.53.18.81.81,0,0,1-.67-.31A1.89,1.89,0,0,1,4.46,45.69Zm.37,0a1.78,1.78,0,0,0,.17,1,.49.49,0,0,0,.42.24.52.52,0,0,0,.42-.24,2.85,2.85,0,0,0,0-1.94.52.52,0,0,0-.43-.24.45.45,0,0,0-.39.21A1.87,1.87,0,0,0,4.83,45.69Z"/><g class="cls-12"><path class="cls-13" d="M20.15,55.67V53.6h.31v.29a.75.75,0,0,1,.26-.24.66.66,0,0,1,.37-.1.6.6,0,0,1,.37.1.48.48,0,0,1,.21.27.73.73,0,0,1,.64-.37.64.64,0,0,1,.47.17.75.75,0,0,1,.17.53v1.42H22.6V54.36a.74.74,0,0,0,0-.3.29.29,0,0,0-.12-.15.46.46,0,0,0-.21,0,.52.52,0,0,0-.36.14.63.63,0,0,0-.14.47v1.2h-.35V54.32a.58.58,0,0,0-.09-.35.35.35,0,0,0-.28-.11.5.5,0,0,0-.27.07.41.41,0,0,0-.18.23,1.23,1.23,0,0,0-.06.43v1.08Z"/><path class="cls-13" d="M23.43,54.63a1.05,1.05,0,0,1,.32-.85,1,1,0,0,1,.65-.23.94.94,0,0,1,.69.28,1.08,1.08,0,0,1,.27.77,1.36,1.36,0,0,1-.12.63.82.82,0,0,1-.34.35,1,1,0,0,1-.5.13.9.9,0,0,1-.7-.28A1.09,1.09,0,0,1,23.43,54.63Zm.36,0a.93.93,0,0,0,.17.6.56.56,0,0,0,.44.19.56.56,0,0,0,.43-.19.91.91,0,0,0,.17-.61.84.84,0,0,0-.17-.58A.57.57,0,0,0,24,54,.9.9,0,0,0,23.79,54.63Z"/></g><g class="cls-12"><path class="cls-13" d="M31.12,55.35l.05.31-.27,0a.6.6,0,0,1-.29-.06.33.33,0,0,1-.15-.16,1.19,1.19,0,0,1,0-.41V53.87h-.26V53.6h.26v-.51l.35-.21v.72h.35v.27h-.35v1.21a.82.82,0,0,0,0,.19l.06.07a.21.21,0,0,0,.12,0Z"/><path class="cls-13" d="M32.89,55.67v-.31a.77.77,0,0,1-.66.35.8.8,0,0,1-.34-.07.6.6,0,0,1-.23-.17.68.68,0,0,1-.11-.26,2.38,2.38,0,0,1,0-.33V53.6h.35v1.15a2.74,2.74,0,0,0,0,.37.34.34,0,0,0,.14.21.45.45,0,0,0,.26.08.61.61,0,0,0,.3-.08.47.47,0,0,0,.2-.22,1.35,1.35,0,0,0,.05-.4V53.6h.35v2.07Z"/></g><g class="cls-12"><path class="cls-13" d="M40.94,55.67l-.63-2.07h.36L41,54.79l.12.45s0-.17.11-.43l.32-1.21h.36l.31,1.2.11.39.11-.4.36-1.19h.34l-.65,2.07h-.36l-.33-1.24-.08-.35-.42,1.59Z"/><path class="cls-13" d="M44.89,55l.36,0a.86.86,0,0,1-.31.5,1,1,0,0,1-.59.17.91.91,0,0,1-.72-.28,1.06,1.06,0,0,1-.27-.78,1.13,1.13,0,0,1,.27-.81.92.92,0,0,1,.7-.29.9.9,0,0,1,.67.28,1.12,1.12,0,0,1,.27.8s0,0,0,.09H43.72a.8.8,0,0,0,.2.52.55.55,0,0,0,.43.18.52.52,0,0,0,.33-.1A.6.6,0,0,0,44.89,55Zm-1.15-.57H44.9a.69.69,0,0,0-.14-.39.54.54,0,0,0-.43-.2.6.6,0,0,0-.41.16A.63.63,0,0,0,43.74,54.43Z"/></g><path class="cls-13" d="M51.73,53.6V54h-.37v.83a1.65,1.65,0,0,0,0,.29.12.12,0,0,0,.05.07.12.12,0,0,0,.09,0,.91.91,0,0,0,.22,0l.05.42a1.23,1.23,0,0,1-.44.08.58.58,0,0,1-.26-.05.35.35,0,0,1-.18-.13.52.52,0,0,1-.07-.21,1.69,1.69,0,0,1,0-.38V54h-.25V53.6h.25v-.41l.55-.32v.73Z"/><path class="cls-13" d="M52.78,52.81v1a.84.84,0,0,1,.63-.31.89.89,0,0,1,.34.07.62.62,0,0,1,.23.18.86.86,0,0,1,.11.24,2.07,2.07,0,0,1,0,.41v1.22h-.55v-1.1a1.7,1.7,0,0,0,0-.41.3.3,0,0,0-.11-.14.39.39,0,0,0-.2-.05A.4.4,0,0,0,53,54a.36.36,0,0,0-.16.2,1.27,1.27,0,0,0,0,.39v1h-.54V52.81Z"/><g class="cls-12"><path class="cls-13" d="M61.05,55.67v-1.8h-.31V53.6h.31v-.22a1.19,1.19,0,0,1,0-.31.55.55,0,0,1,.18-.22.64.64,0,0,1,.36-.08l.33,0-.06.31a.71.71,0,0,0-.2,0,.3.3,0,0,0-.23.07.38.38,0,0,0-.06.25v.19h.4v.27h-.4v1.8Z"/><path class="cls-13" d="M62.18,55.67V53.6h.31v.31a.94.94,0,0,1,.22-.29.48.48,0,0,1,.23-.07.65.65,0,0,1,.36.12l-.12.32a.51.51,0,0,0-.26-.07.37.37,0,0,0-.21.06.41.41,0,0,0-.13.2,1.29,1.29,0,0,0-.06.4v1.09Z"/></g><g class="cls-12"><path class="cls-13" d="M71,55.05l.35-.06a.43.43,0,0,0,.16.32.53.53,0,0,0,.37.11.6.6,0,0,0,.36-.09.3.3,0,0,0,.11-.23.21.21,0,0,0-.1-.19,1.76,1.76,0,0,0-.36-.12,2.74,2.74,0,0,1-.53-.17.55.55,0,0,1-.23-.19.55.55,0,0,1-.07-.28.58.58,0,0,1,.06-.26.52.52,0,0,1,.17-.19.64.64,0,0,1,.22-.1,1.06,1.06,0,0,1,.31-.05,1.32,1.32,0,0,1,.42.07.6.6,0,0,1,.28.19,1.07,1.07,0,0,1,.12.32l-.35,0a.36.36,0,0,0-.13-.25.51.51,0,0,0-.32-.09.58.58,0,0,0-.34.08.23.23,0,0,0-.1.19.19.19,0,0,0,0,.12.25.25,0,0,0,.13.09l.31.09a3.47,3.47,0,0,1,.52.17.52.52,0,0,1,.23.18.48.48,0,0,1,.08.3.58.58,0,0,1-.1.33.7.7,0,0,1-.29.24,1.23,1.23,0,0,1-.44.08.91.91,0,0,1-.61-.17A.77.77,0,0,1,71,55.05Z"/><path class="cls-13" d="M74.6,55.41a1.17,1.17,0,0,1-.37.23,1,1,0,0,1-.39.07.74.74,0,0,1-.52-.16.59.59,0,0,1-.19-.43.68.68,0,0,1,.07-.28.7.7,0,0,1,.18-.2.76.76,0,0,1,.26-.11,1.41,1.41,0,0,1,.31-.05,3.21,3.21,0,0,0,.62-.13v-.09a.38.38,0,0,0-.1-.3.57.57,0,0,0-.39-.12.61.61,0,0,0-.37.09.49.49,0,0,0-.17.31l-.35-.05a1,1,0,0,1,.16-.36.58.58,0,0,1,.31-.2,1.32,1.32,0,0,1,.47-.08,1.08,1.08,0,0,1,.43.07.55.55,0,0,1,.24.15.53.53,0,0,1,.11.24,2.1,2.1,0,0,1,0,.32v.47a4.25,4.25,0,0,0,0,.62.63.63,0,0,0,.09.25h-.37A.71.71,0,0,1,74.6,55.41Zm0-.78a3.07,3.07,0,0,1-.57.13,1.2,1.2,0,0,0-.31.07.28.28,0,0,0-.13.11.26.26,0,0,0,0,.17.29.29,0,0,0,.1.23.43.43,0,0,0,.31.1.69.69,0,0,0,.36-.09.56.56,0,0,0,.24-.24,1,1,0,0,0,0-.35Z"/></g><g class="cls-12"><path class="cls-13" d="M11.8,55.05l.34-.06a.52.52,0,0,0,.16.32.56.56,0,0,0,.38.11.54.54,0,0,0,.35-.09.31.31,0,0,0,.12-.23.21.21,0,0,0-.1-.19,1.76,1.76,0,0,0-.36-.12,2.52,2.52,0,0,1-.53-.17.55.55,0,0,1-.23-.19.57.57,0,0,1-.08-.28.59.59,0,0,1,.07-.26.52.52,0,0,1,.17-.19.56.56,0,0,1,.22-.1,1,1,0,0,1,.3-.05,1.33,1.33,0,0,1,.43.07.62.62,0,0,1,.27.19.71.71,0,0,1,.12.32l-.34,0a.36.36,0,0,0-.13-.25.51.51,0,0,0-.32-.09.56.56,0,0,0-.34.08.24.24,0,0,0-.11.19.21.21,0,0,0,.05.12.22.22,0,0,0,.13.09,1.57,1.57,0,0,0,.31.09,3.47,3.47,0,0,1,.52.17.58.58,0,0,1,.23.18.56.56,0,0,1,.08.3.58.58,0,0,1-.1.33.73.73,0,0,1-.3.24,1.14,1.14,0,0,1-.43.08.91.91,0,0,1-.61-.17A.72.72,0,0,1,11.8,55.05Z"/><path class="cls-13" d="M15.35,55.67v-.31a.77.77,0,0,1-.66.35.8.8,0,0,1-.34-.07.6.6,0,0,1-.23-.17.56.56,0,0,1-.11-.26,1.43,1.43,0,0,1,0-.33V53.6h.35v1.15a1.69,1.69,0,0,0,0,.37.34.34,0,0,0,.14.21.45.45,0,0,0,.26.08.61.61,0,0,0,.3-.08.45.45,0,0,0,.19-.22,1.05,1.05,0,0,0,.06-.4V53.6h.35v2.07Z"/></g></g></g></svg>