<svg xmlns="http://www.w3.org/2000/svg" xmlns:xlink="http://www.w3.org/1999/xlink" viewBox="0 0 14.68 15.06"><defs><style>.cls-1{fill:none;}.cls-2{clip-path:url(#clip-path);}.cls-3{fill:#ffe266;}.cls-4{fill:#13bf9e;}.cls-5{fill:#fff;}</style><clipPath id="clip-path"><path class="cls-1" d="M14.44,7.34a7.1,7.1,0,1,0-7.1,7.1A7.1,7.1,0,0,0,14.44,7.34Z"/></clipPath></defs><title>user</title><g id="Capa_2" data-name="Capa 2"><g id="layer_1" data-name="layer 1"><g class="cls-2"><path class="cls-3" d="M7.58,1.65A3.66,3.66,0,0,0,4,4.79c-.23,1,.68,1.79.14,2.58S2,9,2.51,10.15s-1.45,2.16-.57,3.66S12.37,15,13.14,14a3.16,3.16,0,0,0-.2-3.57c-.66-.72-.25-2-.11-2.55.29-1.16-.59-1.84-1.13-2.41S11,1.7,7.58,1.65Z"/><path class="cls-4" d="M4.13,10a3.73,3.73,0,0,1,.74-.31l1.27-.39.1,0,0,0h0l1.2-.36,1.21.26v.1h0l.06,0h0L9,9.32l1.2.36A3.51,3.51,0,0,1,11,10a3.71,3.71,0,0,1,1.87,3.23v1.51a.3.3,0,0,1-.3.31h-10a.31.31,0,0,1-.31-.31V13.24A3.71,3.71,0,0,1,4.13,10Z"/><path class="cls-5" d="M4.58,5.92c0-.31.33-.25.41-.23A2.81,2.81,0,0,1,5,5.4,2.74,2.74,0,0,1,7.52,2.49,2.74,2.74,0,0,1,10.07,5.4a2.83,2.83,0,0,1,0,.29c.07,0,.39-.09.42.23S10,7,9.73,6.86h0A2.83,2.83,0,0,1,8.73,8V9.24h0a2.06,2.06,0,0,1-2.41,0h0V8a2.81,2.81,0,0,1-1-1.11C5.09,7,4.54,6.27,4.58,5.92Z"/><path class="cls-3" d="M6.84,3.36A5,5,0,0,0,8.92,5.27a.82.82,0,0,1,1,0c.29.25,0,1.17,0,1.17s1.31-2.07.59-3.08A3.51,3.51,0,0,0,7.58,1.65,3.17,3.17,0,0,0,5.07,3,5.51,5.51,0,0,0,5,5.9a8.14,8.14,0,0,1,.35-1.29A6.51,6.51,0,0,1,6.84,3.36Z"/></g><path class="cls-3" d="M7.34,14.68a7.34,7.34,0,1,1,7.34-7.34c0,.14,0,.25,0,.36A7.32,7.32,0,0,1,7.34,14.68ZM7.34.24a7.1,7.1,0,1,0,7.09,7.44c0-.1,0-.21,0-.34A7.11,7.11,0,0,0,7.34.24Z"/></g></g></svg>