<svg xmlns="http://www.w3.org/2000/svg" viewBox="0 0 38.06 38.06"><defs><style>.cls-1{fill:#fff;}</style></defs><title>youtube</title><g id="Capa_2" data-name="Capa 2"><g id="Capa_1-2" data-name="Capa 1"><polygon class="cls-1" points="15.91 23.56 23.88 19.03 15.91 14.5 15.91 23.56"/><path class="cls-1" d="M19,0h0A19,19,0,0,0,0,19H0a19,19,0,0,0,19,19h0a19,19,0,0,0,19-19h0A19,19,0,0,0,19,0ZM33.62,26.41a3.82,3.82,0,0,1-2.69,2.71c-2.37.64-11.9.64-11.9.64s-9.52,0-11.9-.64a3.82,3.82,0,0,1-2.69-2.71A39.94,39.94,0,0,1,3.8,19a39.94,39.94,0,0,1,.64-7.38A3.82,3.82,0,0,1,7.13,8.94C9.51,8.3,19,8.3,19,8.3s9.53,0,11.9.64a3.82,3.82,0,0,1,2.69,2.71A39.94,39.94,0,0,1,34.26,19,39.94,39.94,0,0,1,33.62,26.41Z"/></g></g></svg>